<svg xmlns="http://www.w3.org/2000/svg" width="56.033" height="55.084" viewBox="0 0 56.033 55.084">
  <g id="Grupo_136742" data-name="Grupo 136742" transform="translate(-302.5 -4082.5)">
    <path id="Trazado_122023" data-name="Trazado 122023" d="M1459.307,476.531c0,14.935,10.67,17.553,27.635,17.553s27.4-2.144,27.4-17.078S1503.907,440,1486.942,440,1459.307,461.6,1459.307,476.531Z" transform="translate(-1156.307 3643)" fill="#00cbae" stroke="rgba(0,0,0,0)" stroke-width="1"/>
    <g id="Grupo_140296" data-name="Grupo 140296" transform="translate(-233.426 4058.924)">
      <g id="Grupo_140295" data-name="Grupo 140295" transform="translate(546.98 36.418)">
        <g id="Grupo_140288" data-name="Grupo 140288" transform="translate(9.906 12.303)">
          <path id="Trazado_152825" data-name="Trazado 152825" d="M582.4,71.044a.523.523,0,0,1-.523-.523v-2.5a3.053,3.053,0,0,1,3.049-3.05l7.062.012a2,2,0,1,0,0-4.005H574.49a.523.523,0,0,1,0-1.047h17.493a3.049,3.049,0,1,1,0,6.1l-7.062-.012a2,2,0,0,0-2,2v2.5A.523.523,0,0,1,582.4,71.044Z" transform="translate(-569.752 -59.931)"/>
          <path id="Trazado_152826" data-name="Trazado 152826" d="M589.494,90.478H567.628a1.718,1.718,0,0,1-1.716-1.716V80.886a1.718,1.718,0,0,1,1.716-1.716h21.866a1.718,1.718,0,0,1,1.716,1.716v7.877A1.718,1.718,0,0,1,589.494,90.478ZM567.628,80.217a.67.67,0,0,0-.669.669v7.877a.67.67,0,0,0,.669.669h21.866a.67.67,0,0,0,.669-.669V80.886a.67.67,0,0,0-.669-.669Z" transform="translate(-565.912 -69.103)"/>
          <path id="Trazado_152827" data-name="Trazado 152827" d="M589.494,90.478H567.628a1.718,1.718,0,0,1-1.716-1.716V80.886a1.718,1.718,0,0,1,1.716-1.716h21.866a1.718,1.718,0,0,1,1.716,1.716v7.877A1.718,1.718,0,0,1,589.494,90.478ZM567.628,80.217a.67.67,0,0,0-.669.669v7.877a.67.67,0,0,0,.669.669h21.866a.67.67,0,0,0,.669-.669V80.886a.67.67,0,0,0-.669-.669Z" transform="translate(-565.912 -69.103)"/>
          <g id="Grupo_140286" data-name="Grupo 140286" transform="translate(3.511 13.487)">
            <path id="Trazado_152828" data-name="Trazado 152828" d="M574.819,86.754h-1.674a.523.523,0,0,1,0-1.047h1.674a.523.523,0,0,1,0,1.047Z" transform="translate(-572.622 -85.707)"/>
            <path id="Trazado_152829" data-name="Trazado 152829" d="M584.728,86.754h-1.674a.523.523,0,0,1,0-1.047h1.674a.523.523,0,0,1,0,1.047Z" transform="translate(-577.346 -85.707)"/>
            <path id="Trazado_152830" data-name="Trazado 152830" d="M594.637,86.754h-1.674a.523.523,0,0,1,0-1.047h1.674a.523.523,0,0,1,0,1.047Z" transform="translate(-582.07 -85.707)"/>
            <path id="Trazado_152831" data-name="Trazado 152831" d="M604.547,86.754h-1.673a.523.523,0,0,1,0-1.047h1.673a.523.523,0,1,1,0,1.047Z" transform="translate(-586.795 -85.707)"/>
          </g>
          <g id="Grupo_140287" data-name="Grupo 140287" transform="translate(3.511 16.908)">
            <path id="Trazado_152832" data-name="Trazado 152832" d="M574.819,93.291h-1.674a.523.523,0,0,1,0-1.047h1.674a.523.523,0,0,1,0,1.047Z" transform="translate(-572.622 -92.244)"/>
            <path id="Trazado_152833" data-name="Trazado 152833" d="M589.913,93.291h-6.859a.523.523,0,0,1,0-1.047h6.859a.523.523,0,0,1,0,1.047Z" transform="translate(-577.346 -92.244)"/>
            <path id="Trazado_152834" data-name="Trazado 152834" d="M604.547,93.291h-1.673a.523.523,0,0,1,0-1.047h1.673a.523.523,0,1,1,0,1.047Z" transform="translate(-586.795 -92.244)"/>
          </g>
        </g>
        <g id="Grupo_140294" data-name="Grupo 140294">
          <g id="Grupo_140293" data-name="Grupo 140293">
            <g id="Grupo_140292" data-name="Grupo 140292">
              <g id="Grupo_140289" data-name="Grupo 140289" transform="translate(0 1.94)">
                <path id="Trazado_152835" data-name="Trazado 152835" d="M568.267,43.126V57.458H549.98V43.126" transform="translate(-548.41 -41.556)" fill="#00cbae"/>
                <path id="Trazado_152836" data-name="Trazado 152836" d="M566.837,57.6H548.55a1.57,1.57,0,0,1-1.57-1.57V41.7a1.57,1.57,0,0,1,3.14,0V54.458h15.147V41.7a1.57,1.57,0,1,1,3.14,0V56.028A1.57,1.57,0,0,1,566.837,57.6Z" transform="translate(-546.98 -40.126)" fill="#00cbae"/>
              </g>
              <path id="Trazado_152837" data-name="Trazado 152837" d="M567.79,57.747H549.5a.523.523,0,0,1-.523-.523V43.157a.523.523,0,1,1,1.047,0V56.7h17.24V43.157a.523.523,0,1,1,1.047,0V57.223A.523.523,0,0,1,567.79,57.747Z" transform="translate(-547.933 -39.381)"/>
              <g id="Grupo_140290" data-name="Grupo 140290" transform="translate(3.16)">
                <rect id="Rectángulo_35740" data-name="Rectángulo 35740" width="2.093" height="14.608" transform="translate(0 0.523)" fill="#00cbae"/>
                <rect id="Rectángulo_35741" data-name="Rectángulo 35741" width="2.093" height="14.608" transform="translate(13.013 0.523)" fill="#00cbae"/>
                <path id="Trazado_152838" data-name="Trazado 152838" d="M561.049,53.969a.523.523,0,0,1-.523-.523,1.35,1.35,0,0,0-1.322-1.373h-4.662a.523.523,0,0,1-.523-.523V36.941a.523.523,0,0,1,.523-.523H559.2a2.67,2.67,0,0,0,3.69,0h4.662a.523.523,0,0,1,.523.523V51.55a.523.523,0,0,1-.523.523h-4.662a1.349,1.349,0,0,0-1.321,1.373A.523.523,0,0,1,561.049,53.969Zm-5.983-2.943H559.2a2.334,2.334,0,0,0,3.69,0h4.139V37.465h-4.139c-.639,0-1.321.291-1.321,1.107a.523.523,0,0,1-1.047,0c0-.816-.683-1.107-1.322-1.107h-4.138Z" transform="translate(-553.496 -36.418)"/>
              </g>
              <g id="Grupo_140291" data-name="Grupo 140291" transform="translate(10.19 1.68)">
                <line id="Línea_115" data-name="Línea 115" y2="10.946" transform="translate(0.523 0.523)" fill="#fff"/>
                <path id="Trazado_152839" data-name="Trazado 152839" d="M566.977,51.622a.523.523,0,0,1-.523-.523V40.152a.523.523,0,1,1,1.047,0V51.1A.523.523,0,0,1,566.977,51.622Z" transform="translate(-566.454 -39.629)"/>
              </g>
            </g>
          </g>
          <path id="Trazado_152840" data-name="Trazado 152840" d="M566.977,69.828a.523.523,0,0,1-.523-.523v-.857a.523.523,0,1,1,1.047,0V69.3A.523.523,0,0,1,566.977,69.828Z" transform="translate(-556.264 -51.439)"/>
        </g>
      </g>
    </g>
  </g>
</svg>
