<svg xmlns="http://www.w3.org/2000/svg" width="56.033" height="55.084" viewBox="0 0 56.033 55.084">
  <g id="Grupo_136741" data-name="Grupo 136741" transform="translate(-302.5 -4082.5)">
    <path id="Trazado_122023" data-name="Trazado 122023" d="M1459.307,476.531c0,14.935,10.67,17.553,27.635,17.553s27.4-2.144,27.4-17.078S1503.907,440,1486.942,440,1459.307,461.6,1459.307,476.531Z" transform="translate(-1156.307 3643)" fill="#00cbae" stroke="rgba(0,0,0,0)" stroke-width="1"/>
    <g id="Grupo_140285" data-name="Grupo 140285" transform="translate(-944.685 3825.44)">
      <g id="Grupo_140276" data-name="Grupo 140276" transform="translate(1264.251 275.706)">
        <path id="Trazado_152813" data-name="Trazado 152813" d="M1272.746,301.946h-3.24a.568.568,0,1,1,0-1.136h3.24a.568.568,0,1,1,0,1.136Z" transform="translate(-1268.938 -289.249)"/>
        <path id="Trazado_152814" data-name="Trazado 152814" d="M1307.684,301.963H1304.5a.568.568,0,1,1,0-1.136h3.184a.568.568,0,1,1,0,1.136Z" transform="translate(-1284.059 -289.256)"/>
        <path id="Trazado_152815" data-name="Trazado 152815" d="M1275.462,314.617a.568.568,0,0,1-.4-.969l2.27-2.27a.568.568,0,0,1,.8.8l-2.27,2.27A.568.568,0,0,1,1275.462,314.617Z" transform="translate(-1271.511 -293.743)"/>
        <path id="Trazado_152816" data-name="Trazado 152816" d="M1300.213,289.846a.568.568,0,0,1-.4-.969l2.3-2.3a.568.568,0,0,1,.8.8l-2.3,2.3A.568.568,0,0,1,1300.213,289.846Z" transform="translate(-1282.207 -283.028)"/>
        <path id="Trazado_152817" data-name="Trazado 152817" d="M1289.863,284.833a.567.567,0,0,1-.568-.568v-3.246a.568.568,0,0,1,1.136,0v3.246A.567.567,0,0,1,1289.863,284.833Z" transform="translate(-1277.735 -280.451)"/>
        <path id="Trazado_152818" data-name="Trazado 152818" d="M1290.442,320.073h-4.848a.568.568,0,0,1,0-1.136h4.848a.568.568,0,0,1,0,1.136Z" transform="translate(-1275.89 -297.082)"/>
        <path id="Trazado_152819" data-name="Trazado 152819" d="M1287.959,305.726a.567.567,0,0,1-.568-.568v-.682a5.524,5.524,0,0,1,1.611-3.591,5.646,5.646,0,0,0,1.652-3.834,5.119,5.119,0,1,0-10.238,0,5.646,5.646,0,0,0,1.652,3.834,5.523,5.523,0,0,1,1.611,3.591v.682a.568.568,0,0,1-1.136,0v-.682a4.505,4.505,0,0,0-1.361-2.88,6.741,6.741,0,0,1-1.9-4.544,6.255,6.255,0,1,1,12.509,0,6.74,6.74,0,0,1-1.9,4.544,4.506,4.506,0,0,0-1.361,2.88v.682A.568.568,0,0,1,1287.959,305.726Z" transform="translate(-1273.407 -284.922)"/>
        <path id="Trazado_152820" data-name="Trazado 152820" d="M1290.157,323.923h-2.483a.568.568,0,0,1,0-1.136h2.483a.568.568,0,0,1,0,1.136Z" transform="translate(-1276.789 -298.745)"/>
      </g>
      <g id="Grupo_140284" data-name="Grupo 140284" transform="translate(1258.092 269.47)">
        <g id="Grupo_140283" data-name="Grupo 140283">
          <g id="Grupo_140282" data-name="Grupo 140282">
            <g id="Grupo_140277" data-name="Grupo 140277" transform="translate(23.035 25.545)">
              <path id="Trazado_152821" data-name="Trazado 152821" d="M1299.223,324.854a.568.568,0,0,1-.549-.715l2.483-9.265a.567.567,0,0,1,.949-.254l2.106,2.106a.568.568,0,0,1-.8.8L1302,316.118l-1.974,7.365,7.365-1.974-1.411-1.411a.568.568,0,1,1,.8-.8l2.106,2.106a.568.568,0,0,1-.254.95l-9.265,2.483A.542.542,0,0,1,1299.223,324.854Z" transform="translate(-1298.655 -314.453)"/>
            </g>
            <g id="Grupo_140278" data-name="Grupo 140278" transform="translate(17.382)">
              <path id="Trazado_152822" data-name="Trazado 152822" d="M1302.08,300.826a.568.568,0,0,1-.4-.97,17.132,17.132,0,0,0-12.4-29.249h-.01a.568.568,0,0,1-.009-1.136,18.276,18.276,0,0,1,13.222,31.188A.567.567,0,0,1,1302.08,300.826Z" transform="translate(-1288.701 -269.47)"/>
            </g>
            <g id="Grupo_140281" data-name="Grupo 140281" transform="translate(0 0.616)">
              <g id="Grupo_140279" data-name="Grupo 140279" transform="translate(3.071)">
                <path id="Trazado_152823" data-name="Trazado 152823" d="M1270.85,280.955a.568.568,0,0,1-.4-.166l-2.107-2.107a.568.568,0,0,1,.8-.8l1.412,1.411,1.973-7.365-7.364,1.973,1.411,1.411a.568.568,0,0,1-.8.8l-2.107-2.106a.568.568,0,0,1,.254-.95l9.265-2.483a.568.568,0,0,1,.7.7l-2.482,9.265a.567.567,0,0,1-.549.421Z" transform="translate(-1263.5 -270.554)"/>
              </g>
              <g id="Grupo_140280" data-name="Grupo 140280" transform="translate(0 4.589)">
                <path id="Trazado_152824" data-name="Trazado 152824" d="M1276.351,309.992a18.276,18.276,0,0,1-12.915-31.19.568.568,0,0,1,.8.8,17.133,17.133,0,0,0,12.4,29.249h.01a.568.568,0,0,1,.009,1.136Z" transform="translate(-1258.092 -278.635)"/>
              </g>
            </g>
          </g>
        </g>
      </g>
    </g>
  </g>
</svg>
