<svg xmlns="http://www.w3.org/2000/svg" width="390.369" height="334.675" viewBox="0 0 390.369 334.675">
  <g id="Grupo_140316" data-name="Grupo 140316" transform="translate(-779.047 -937.501)">
    <g id="Grupo_78644" data-name="Grupo 78644" transform="translate(779.547 986.333)">
      <path id="Trazado_114225" data-name="Trazado 114225" d="M1478.1,589.938c31.392,67.476,85.1,56.88,161.752,21.221s119.276-67.276,87.884-134.751-124.913-145.26-201.563-109.6S1446.712,522.463,1478.1,589.938Z" transform="translate(-1445.365 -354.482)" fill="none" stroke="#ef3c79" stroke-miterlimit="10" stroke-width="2"/>
      <path id="Trazado_114226" data-name="Trazado 114226" d="M1475,537.031c0,74.42,53.166,87.47,137.705,87.47s136.523-10.685,136.523-85.105S1697.244,355,1612.705,355,1475,462.611,1475,537.031Z" transform="translate(-1475 -355)" fill="#00cbae" stroke="rgba(0,0,0,0)" stroke-width="1"/>
      <path id="Trazado_114227" data-name="Trazado 114227" d="M1672.817,428.565c0,7.181,5.13,8.44,13.287,8.44s13.174-1.031,13.174-8.211S1694.261,411,1686.1,411,1672.817,421.384,1672.817,428.565Z" transform="translate(-1658.874 -344.807)" fill="#ef3c79" stroke="rgba(0,0,0,0)" stroke-width="1"/>
      <path id="Trazado_114228" data-name="Trazado 114228" d="M1459.307,457.565c0,7.181,5.131,8.44,13.287,8.44s13.173-1.031,13.173-8.211S1480.751,440,1472.594,440,1459.307,450.384,1459.307,457.565Z" transform="translate(-1192.99 -339.528)" fill="#0d4aad" stroke="rgba(0,0,0,0)" stroke-width="1"/>
    </g>
    <g id="Grupo_137453" data-name="Grupo 137453" transform="translate(795.326 937.501)">
      <g id="Grupo_137452" data-name="Grupo 137452" transform="translate(0 0)">
        <g id="Grupo_137439" data-name="Grupo 137439" transform="translate(298.923 202.758)">
          <g id="Grupo_137436" data-name="Grupo 137436" transform="translate(0 63.234)">
            <path id="Trazado_151834" data-name="Trazado 151834" d="M1249.8,856.665c.289-.389,26.059-1.574,26.059-1.574l16.829-24.243-11.512-16.132-26.937-.524-4.028,41.269" transform="translate(-1249.804 -814.192)" fill="#ffbc96"/>
          </g>
          <g id="Grupo_137438" data-name="Grupo 137438" transform="translate(19.781 0)">
            <g id="Grupo_137437" data-name="Grupo 137437">
              <path id="Trazado_151835" data-name="Trazado 151835" d="M1353.979,765.357c-15.951.031-25.937-2.317-41.888-2.286-2.9.005-6.3-.242-7.892-2.672-1.434-2.193-.614-5.222.98-7.3s3.834-3.562,5.649-5.453a17.831,17.831,0,0,0,4.089-17.247c-1.828-5.921-8.5-13.415-14.568-14.687,11.166-18.009,23.8-33.27,34.964-51.278,2.287-3.689,4.689-7.5,8.328-9.866s8.889-2.852,12.095.075Z" transform="translate(-1300.349 -652.616)" fill="#ca3c21"/>
              <path id="Trazado_151836" data-name="Trazado 151836" d="M1415.861,766.538c-.057,0,.386-25,.988-55.823s1.136-55.826,1.192-55.825-.386,24.992-.988,55.829S1415.917,766.539,1415.861,766.538Z" transform="translate(-1370.651 -654)" fill="#10100c"/>
              <path id="Trazado_151837" data-name="Trazado 151837" d="M1392.993,716.237a1.02,1.02,0,0,1-.237.009c-.155,0-.384,0-.678-.018-.588-.024-1.44-.08-2.485-.213a22.636,22.636,0,0,1-3.626-.753,16.379,16.379,0,0,1-4.137-1.861,12.462,12.462,0,0,1-3.294-3.117,10.53,10.53,0,0,1-1.63-3.326,8.3,8.3,0,0,1-.32-2.477,5.577,5.577,0,0,1,.052-.677,1.033,1.033,0,0,1,.038-.234c.021,0-.013.327-.01.911a8.818,8.818,0,0,0,.379,2.437,10.649,10.649,0,0,0,1.644,3.255,12.519,12.519,0,0,0,3.253,3.056,16.631,16.631,0,0,0,4.081,1.853,23.982,23.982,0,0,0,3.591.79c1.038.151,1.885.229,2.471.277l.675.056A1.067,1.067,0,0,1,1392.993,716.237Z" transform="translate(-1346.746 -683.629)" fill="#10100c"/>
              <path id="Trazado_151838" data-name="Trazado 151838" d="M1366.812,898.324a2.185,2.185,0,0,1-.04-.346c-.013-.228-.058-.563-.06-1a21.184,21.184,0,0,1,.2-3.667,23.147,23.147,0,0,1,1.389-5.267,22.4,22.4,0,0,1,3.348-5.763,19.806,19.806,0,0,1,2.4-2.493,23.843,23.843,0,0,1,2.551-1.969,26.3,26.3,0,0,1,4.8-2.572,22.838,22.838,0,0,1,3.493-1.132c.419-.111.755-.154.978-.2a2.263,2.263,0,0,1,.344-.051,2.209,2.209,0,0,1-.336.092c-.22.059-.552.115-.967.237a25.119,25.119,0,0,0-3.457,1.189,27.006,27.006,0,0,0-4.751,2.595,24.1,24.1,0,0,0-2.524,1.963,19.854,19.854,0,0,0-2.376,2.472,22.576,22.576,0,0,0-3.332,5.7,23.657,23.657,0,0,0-1.421,5.217,23.036,23.036,0,0,0-.264,3.645c-.011.433.022.768.021,1A2.367,2.367,0,0,1,1366.812,898.324Z" transform="translate(-1340.732 -787.277)" fill="#10100c"/>
              <path id="Trazado_151839" data-name="Trazado 151839" d="M1361.559,744.785a1.97,1.97,0,0,1-.459-.068,4.27,4.27,0,0,1-.527-.139,6.035,6.035,0,0,1-.681-.239,15.345,15.345,0,0,1-6.459-5.144,6.068,6.068,0,0,1-.385-.611,4.287,4.287,0,0,1-.253-.483,2.011,2.011,0,0,1-.169-.432c.036-.017.294.593.924,1.443a16.951,16.951,0,0,0,6.4,5.094C1360.915,744.632,1361.567,744.746,1361.559,744.785Z" transform="translate(-1332.166 -704.383)" fill="#10100c"/>
              <path id="Trazado_151840" data-name="Trazado 151840" d="M1346.568,766.51a2.157,2.157,0,0,1-.475-.073,4.443,4.443,0,0,1-.545-.149,6.493,6.493,0,0,1-.7-.255,16.734,16.734,0,0,1-6.7-5.333,6.523,6.523,0,0,1-.406-.628,4.569,4.569,0,0,1-.267-.5,2.159,2.159,0,0,1-.177-.447c.037-.017.3.615.967,1.488a18.536,18.536,0,0,0,6.636,5.285C1345.9,766.352,1346.577,766.47,1346.568,766.51Z" transform="translate(-1322.837 -717.442)" fill="#10100c"/>
              <path id="Trazado_151841" data-name="Trazado 151841" d="M1333.238,787a2.525,2.525,0,0,1-.51-.089,7.276,7.276,0,0,1-1.321-.5,17.262,17.262,0,0,1-3.818-2.642,19.959,19.959,0,0,1-3.11-3.449,9.32,9.32,0,0,1-.719-1.213,2.5,2.5,0,0,1-.193-.48c.035-.016.327.66,1.031,1.61a22.622,22.622,0,0,0,3.127,3.379,19.162,19.162,0,0,0,3.746,2.665A12.658,12.658,0,0,0,1333.238,787Z" transform="translate(-1314.479 -729.314)" fill="#10100c"/>
              <path id="Trazado_151842" data-name="Trazado 151842" d="M1402.525,790.542c-.056,0,.216-12.525.609-27.969s.756-27.968.813-27.966-.217,12.522-.609,27.971S1402.581,790.543,1402.525,790.542Z" transform="translate(-1362.533 -702.519)" fill="#10100c"/>
            </g>
          </g>
        </g>
        <g id="Grupo_137443" data-name="Grupo 137443" transform="translate(2.598 125.587)">
          <path id="Trazado_151843" data-name="Trazado 151843" d="M583.939,844.419l259.24-1.279v-58.21l-246.8-4.182-36.684,31.835Z" transform="translate(-533.449 -653.433)" fill="#0d4aad"/>
          <g id="Grupo_137442" data-name="Grupo 137442" transform="translate(184.692 115.842)">
            <path id="Trazado_151844" data-name="Trazado 151844" d="M966.856,760.973c.461.148,9.923,24.148,9.923,24.148l22.769,15.919,17.153-23.953-8.221-25.657-40.351,9.544" transform="translate(-965.957 -751.429)" fill="#ffbc96"/>
            <g id="Grupo_137441" data-name="Grupo 137441" transform="translate(0 20.22)">
              <g id="Grupo_137440" data-name="Grupo 137440">
                <path id="Trazado_151845" data-name="Trazado 151845" d="M964.56,856.816c-.06-15.951,2.27-25.941,2.21-41.893-.011-2.9.231-6.3,2.658-7.9,2.191-1.438,5.221-.623,7.3.967s3.569,3.827,5.463,5.639a17.83,17.83,0,0,0,17.254,4.057c5.918-1.839,13.4-8.527,14.661-14.594,18.029,11.132,33.312,23.738,51.341,34.871,3.693,2.28,7.507,4.676,9.881,8.31s2.868,8.884-.053,12.095Z" transform="translate(-964.559 -803.096)" fill="#ca3c21"/>
                <path id="Trazado_151846" data-name="Trazado 151846" d="M965.041,918.834c0-.056,25,.341,55.825.887s55.828,1.035,55.827,1.091-24.993-.341-55.831-.887S965.04,918.89,965.041,918.834Z" transform="translate(-964.852 -873.535)" fill="#10100c"/>
                <path id="Trazado_151847" data-name="Trazado 151847" d="M1169.265,895.566a1.026,1.026,0,0,1-.009-.237c0-.155,0-.383.016-.678.023-.588.078-1.44.209-2.486a22.646,22.646,0,0,1,.747-3.627,16.373,16.373,0,0,1,1.853-4.141,12.465,12.465,0,0,1,3.111-3.3,10.517,10.517,0,0,1,3.323-1.636,8.279,8.279,0,0,1,2.476-.324,5.446,5.446,0,0,1,.677.05,1.033,1.033,0,0,1,.234.037c0,.021-.327-.013-.911-.008a8.817,8.817,0,0,0-2.436.384,10.643,10.643,0,0,0-3.253,1.649,12.526,12.526,0,0,0-3.05,3.258,16.629,16.629,0,0,0-1.845,4.085,24,24,0,0,0-.784,3.593c-.149,1.039-.225,1.886-.272,2.471-.022.275-.041.5-.055.675A1.052,1.052,0,0,1,1169.265,895.566Z" transform="translate(-1089.146 -849.375)" fill="#10100c"/>
                <path id="Trazado_151848" data-name="Trazado 151848" d="M968.762,869.774a2.216,2.216,0,0,1,.346-.04c.228-.013.563-.06,1-.062a21.172,21.172,0,0,1,3.667.194,23.138,23.138,0,0,1,5.269,1.38,22.381,22.381,0,0,1,5.769,3.338,19.776,19.776,0,0,1,2.5,2.4,23.7,23.7,0,0,1,1.973,2.547,26.263,26.263,0,0,1,2.581,4.8A22.8,22.8,0,0,1,993,887.816c.112.419.155.755.2.978a2.277,2.277,0,0,1,.052.344,2.183,2.183,0,0,1-.092-.336c-.06-.22-.115-.552-.239-.967a25.108,25.108,0,0,0-1.195-3.454,27.007,27.007,0,0,0-2.6-4.747,24.027,24.027,0,0,0-1.967-2.52,19.831,19.831,0,0,0-2.476-2.371,22.559,22.559,0,0,0-5.711-3.322,23.665,23.665,0,0,0-5.22-1.412,23.064,23.064,0,0,0-3.646-.258c-.432-.01-.767.023-1,.023A2.2,2.2,0,0,1,968.762,869.774Z" transform="translate(-967.117 -843.608)" fill="#10100c"/>
                <path id="Trazado_151849" data-name="Trazado 151849" d="M1149.282,864.18a2.02,2.02,0,0,1,.067-.459,4.3,4.3,0,0,1,.138-.528,6.045,6.045,0,0,1,.237-.682,15.342,15.342,0,0,1,5.132-6.468,6.042,6.042,0,0,1,.611-.386,4.27,4.27,0,0,1,.482-.254,2,2,0,0,1,.432-.169c.017.037-.592.3-1.441.927a16.954,16.954,0,0,0-5.083,6.405C1149.435,863.536,1149.322,864.188,1149.282,864.18Z" transform="translate(-1076.987 -834.828)" fill="#10100c"/>
                <path id="Trazado_151850" data-name="Trazado 151850" d="M1127.116,849.229a2.154,2.154,0,0,1,.072-.475,4.509,4.509,0,0,1,.148-.545,6.525,6.525,0,0,1,.254-.7,16.728,16.728,0,0,1,5.32-6.706,6.557,6.557,0,0,1,.628-.407,4.521,4.521,0,0,1,.5-.268,2.163,2.163,0,0,1,.447-.178c.018.037-.614.3-1.486.97a18.544,18.544,0,0,0-5.274,6.645C1127.273,848.561,1127.156,849.237,1127.116,849.229Z" transform="translate(-1063.495 -825.523)" fill="#10100c"/>
                <path id="Trazado_151851" data-name="Trazado 151851" d="M1105.064,835.935a2.509,2.509,0,0,1,.089-.51,7.24,7.24,0,0,1,.5-1.322,17.241,17.241,0,0,1,2.635-3.822,19.923,19.923,0,0,1,3.443-3.116,9.3,9.3,0,0,1,1.212-.722,2.482,2.482,0,0,1,.48-.194c.017.035-.659.327-1.608,1.033a22.615,22.615,0,0,0-3.374,3.134,19.193,19.193,0,0,0-2.658,3.751A12.644,12.644,0,0,0,1105.064,835.935Z" transform="translate(-1050.074 -817.187)" fill="#10100c"/>
                <path id="Trazado_151852" data-name="Trazado 151852" d="M1027.658,905.386c0-.056,12.525.194,27.97.558s27.969.706,27.967.762-12.523-.194-27.972-.558S1027.656,905.442,1027.658,905.386Z" transform="translate(-1002.964 -865.349)" fill="#10100c"/>
              </g>
            </g>
          </g>
          <path id="Trazado_151853" data-name="Trazado 151853" d="M495.074,563.433s-16.376,72.712,35.764,81.534c20.986,3.55,73.5.759,73.5.759l61.625-103.1,9.962,54.3,57.381-3.183S717.784,499.926,712.028,478.8c-7.642-28.052-40.6-25.772-55.637-19.012-12.844,5.774-45.99,35.891-66.561,59.053-8.739,9.84-18.309,18.529-26.515,26.9-10.846,11.066-19.216,20.484-19.216,20.484Z" transform="translate(-492.636 -455.432)" fill="#0d4aad"/>
          <path id="Trazado_151854" data-name="Trazado 151854" d="M839.679,678.223c.048.029-13.709,23.134-30.723,51.6s-30.853,51.53-30.9,51.5,13.706-23.13,30.726-51.606S839.631,678.194,839.679,678.223Z" transform="translate(-666.353 -591.031)" fill="#10100c"/>
          <path id="Trazado_151855" data-name="Trazado 151855" d="M991.194,661.968s.017.069.042.205l.112.611.42,2.382,1.566,9.033,5.521,32.138a.089.089,0,0,1-.073.1h-.01l-41.266,2.3-16.114.892a.1.1,0,0,1-.1-.086c-.8-4.93-1.689-9.7-2.507-14.282l-2.386-13.132c-1.522-8.32-2.876-15.724-4.006-21.9s-2.033-11.117-2.656-14.523c-.307-1.7-.545-3.012-.707-3.907q-.117-.664-.179-1.012c-.039-.228-.055-.345-.055-.345s.028.115.073.342.111.567.2,1.008l.74,3.9,2.714,14.512c1.142,6.174,2.512,13.576,4.05,21.893l2.4,13.129c.822,4.583,1.711,9.346,2.517,14.287l-.1-.086,16.114-.9,41.268-2.277-.083.1-5.449-32.151c-.653-3.888-1.166-6.948-1.517-9.041-.172-1.042-.3-1.842-.394-2.387-.042-.268-.075-.472-.1-.613S991.194,661.968,991.194,661.968Z" transform="translate(-758.099 -568.041)" fill="#10100c"/>
          <path id="Trazado_151856" data-name="Trazado 151856" d="M602.154,687.6a1.041,1.041,0,0,1-.11.131l-.34.369-1.32,1.407-4.851,5.177-15.882,17.193c-3.109,3.352-6.091,6.527-8.829,9.39s-5.236,5.41-7.37,7.513c-1.058,1.061-2.032,2-2.887,2.83s-1.593,1.539-2.207,2.109l-1.41,1.316-.37.339a1.125,1.125,0,0,1-.131.11,1.054,1.054,0,0,1,.117-.126l.357-.353,1.384-1.344c.605-.578,1.338-1.294,2.182-2.133s1.814-1.783,2.865-2.851c2.12-2.115,4.6-4.682,7.336-7.541s5.706-6.047,8.815-9.4c6.209-6.707,11.811-12.8,15.926-17.153,2.057-2.178,3.729-3.933,4.9-5.133l1.347-1.381.354-.355A1.03,1.03,0,0,1,602.154,687.6Z" transform="translate(-531.474 -596.736)" fill="#10100c"/>
          <path id="Trazado_151857" data-name="Trazado 151857" d="M573.68,738.527s-.025.018-.079.043l-.241.108-.933.4c-.811.345-1.994.818-3.463,1.387-2.937,1.142-7.038,2.6-11.565,4.209s-8.592,3.163-11.49,4.391c-1.45.612-2.618,1.12-3.418,1.487l-.926.412-.243.1a.3.3,0,0,1-.086.029.312.312,0,0,1,.077-.048l.234-.121.911-.447c.79-.389,1.951-.918,3.395-1.548,2.887-1.263,6.949-2.839,11.478-4.451s8.634-3.045,11.582-4.152c1.474-.552,2.666-1,3.485-1.326l.948-.363.248-.089A.313.313,0,0,1,573.68,738.527Z" transform="translate(-522.215 -627.734)" fill="#10100c"/>
        </g>
        <g id="Grupo_137445" data-name="Grupo 137445" transform="translate(120.051 76.424)">
          <path id="Trazado_151858" data-name="Trazado 151858" d="M833.309,379.553l9.035-22.889a5.478,5.478,0,0,0,.089-4.012c-1.495-3.775-5.347-1.151-5.347-1.151-.205-7.173-5.646-2.653-5.646-2.653.175-6.641-8.228-3.6-8.228-3.6l2.173-6.752s3.018-.251,5.5-.164c2.767.1,5.886-2.834,4.257-5.488-1.506-2.453-10.611-4.923-16.748-.9-7.859,5.151-14.9,44.274-14.9,44.274l-10.745,45.033,27.811,4.923Z" transform="translate(-792.753 -329.811)" fill="#ffbc96"/>
          <path id="Trazado_151859" data-name="Trazado 151859" d="M874.547,371.79a1.969,1.969,0,0,1-.062.317l-.218.9c-.2.776-.487,1.9-.967,3.258a16.014,16.014,0,0,1-2.345,4.461,10.382,10.382,0,0,1-2.139,2.09,5.919,5.919,0,0,1-1.4.764,3.386,3.386,0,0,1-1.64.2,2.443,2.443,0,0,1-1.479-.743,2.775,2.775,0,0,1-.663-1.464,10.587,10.587,0,0,1,.124-2.99,37.678,37.678,0,0,1,1.092-4.923c.4-1.379.766-2.48,1.029-3.238l.311-.869a1.947,1.947,0,0,1,.122-.3,1.894,1.894,0,0,1-.084.312l-.274.881c-.239.765-.586,1.871-.965,3.251a39.62,39.62,0,0,0-1.045,4.91,10.549,10.549,0,0,0-.113,2.931,2.583,2.583,0,0,0,.616,1.36,2.24,2.24,0,0,0,1.359.679,3.184,3.184,0,0,0,1.542-.185,5.721,5.721,0,0,0,1.353-.737,10.279,10.279,0,0,0,2.107-2.043,16.221,16.221,0,0,0,2.358-4.395c.495-1.341.8-2.46,1.026-3.229l.255-.887A1.919,1.919,0,0,1,874.547,371.79Z" transform="translate(-835.853 -353.815)" fill="#10100c"/>
          <path id="Trazado_151860" data-name="Trazado 151860" d="M889.747,383.428a.7.7,0,0,1,.021.2c0,.128.019.318.014.562a11.541,11.541,0,0,1-.22,2.058,12.587,12.587,0,0,1-.967,2.915,12.4,12.4,0,0,1-2.12,3.107,6.477,6.477,0,0,1-3.142,2.045,2.852,2.852,0,0,1-2.855-.9,5.085,5.085,0,0,1-1.011-1.808c-.077-.232-.126-.416-.155-.542a.731.731,0,0,1-.032-.194c.017,0,.088.256.262.708a5.313,5.313,0,0,0,1.042,1.737,2.84,2.84,0,0,0,1.145.756,2.793,2.793,0,0,0,1.562.056,6.386,6.386,0,0,0,3.036-2,12.571,12.571,0,0,0,2.1-3.049,13.045,13.045,0,0,0,.995-2.863,13.364,13.364,0,0,0,.282-2.031A6.573,6.573,0,0,1,889.747,383.428Z" transform="translate(-845.415 -362.445)" fill="#10100c"/>
          <g id="Grupo_137444" data-name="Grupo 137444" transform="translate(40.636 29.577)">
            <path id="Trazado_151861" data-name="Trazado 151861" d="M904.7,405.388a1.614,1.614,0,0,1-.221.354,6.26,6.26,0,0,1-.766.841,7.051,7.051,0,0,1-1.378.98,7.212,7.212,0,0,1-1.948.708,5.838,5.838,0,0,1-2.076.068,2.127,2.127,0,0,1-1.455-.866,1.488,1.488,0,0,1-.236-1.119.979.979,0,0,1,.115-.293c.04-.06.064-.089.07-.085a3.309,3.309,0,0,0-.106.392,1.468,1.468,0,0,0,.278,1.024,2.013,2.013,0,0,0,1.368.762,5.913,5.913,0,0,0,2-.083,7.353,7.353,0,0,0,3.27-1.6C904.334,405.86,904.665,405.363,904.7,405.388Z" transform="translate(-896.587 -405.387)" fill="#10100c"/>
          </g>
          <path id="Trazado_151862" data-name="Trazado 151862" d="M841.24,398.854c-.01-.008.1-.119.252-.36a3.482,3.482,0,0,0,.479-1.151,5.061,5.061,0,0,0,.032-1.97,8.044,8.044,0,0,0-.9-2.46c-.452-.868-1.047-1.767-1.582-2.8a7.319,7.319,0,0,1-.94-3.572,3.91,3.91,0,0,1,.57-1.939,5.628,5.628,0,0,1,1.471-1.5c.569-.429,1.179-.812,1.743-1.264a6.591,6.591,0,0,0,1.464-1.61,6.885,6.885,0,0,0,1.1-4.1,4.89,4.89,0,0,0-.511-1.96,3.211,3.211,0,0,0-1.294-1.4,2.379,2.379,0,0,0-1.778-.148,5.972,5.972,0,0,0-1.582.767,17.134,17.134,0,0,0-2.529,1.952,17.767,17.767,0,0,0-2.948,3.564c-.29.465-.5.837-.636,1.091l-.158.289a.472.472,0,0,1-.06.1.461.461,0,0,1,.041-.1l.14-.3c.126-.261.324-.64.605-1.113a17.306,17.306,0,0,1,5.454-5.617,6.12,6.12,0,0,1,1.625-.8,2.56,2.56,0,0,1,1.913.154,3.391,3.391,0,0,1,1.38,1.478,5.064,5.064,0,0,1,.537,2.037,7.063,7.063,0,0,1-1.127,4.22,6.776,6.776,0,0,1-1.509,1.658c-.577.461-1.189.843-1.749,1.265a5.458,5.458,0,0,0-1.426,1.448,3.72,3.72,0,0,0-.547,1.844,7.173,7.173,0,0,0,.9,3.487c.523,1.023,1.111,1.929,1.559,2.808a8.055,8.055,0,0,1,.884,2.509,5.048,5.048,0,0,1-.067,2.006,3.346,3.346,0,0,1-.522,1.156A2.086,2.086,0,0,1,841.24,398.854Z" transform="translate(-817.513 -355.69)" fill="#10100c"/>
        </g>
        <g id="Grupo_137448" data-name="Grupo 137448" transform="translate(19.199 0)">
          <path id="Trazado_151863" data-name="Trazado 151863" d="M678.376,152.785S713.942,154.5,699.818,191c-9.277,23.974-48.727,37.191-48.727,37.191l-14.016-10.441,23.859-58.034Z" transform="translate(-597.149 -145.642)" fill="#10100c"/>
          <g id="Grupo_137447" data-name="Grupo 137447" transform="translate(0 0)">
            <path id="Trazado_151864" data-name="Trazado 151864" d="M635.377,259.179h0l1.82-37.972,4.922-31.521,31.887-19.6,4.753,1.548c10.988,3.579,21.12,12.222,20.042,24.784l.02.189s-2.119,29.577-6.337,39.15c-5.26,11.936-14.154,11.38-16.914,16.069-1.575,2.676-2.015,6.346-2.03,9.536a13.364,13.364,0,0,1-9.393,12.774C656.711,276.406,646.034,275.319,635.377,259.179Z" transform="translate(-596.115 -156.17)" fill="#ffbc96"/>
            <path id="Trazado_151865" data-name="Trazado 151865" d="M774.518,222.65a2.513,2.513,0,0,0-1.373-.99,6.438,6.438,0,0,0-1.664-.331c-.053-.005-.1,0-.157-.008a6.566,6.566,0,0,0-.865-.008,5.961,5.961,0,0,0-1.015.147c-.035.009-.071.011-.107.02a6.538,6.538,0,0,0-1.091.38c-.039.017-.081.024-.12.042l.017,0c-.058.027-.116.04-.174.068a3.511,3.511,0,0,0-1.608,1.417,1.967,1.967,0,0,0,.113,2.154,2.083,2.083,0,0,0,1.213.509l1.877.338a8.38,8.38,0,0,0,2.455.2,3.223,3.223,0,0,0,2.216-1.188A2.592,2.592,0,0,0,774.518,222.65Z" transform="translate(-675.678 -187.344)"/>
            <path id="Trazado_151866" data-name="Trazado 151866" d="M717.891,218.791a2.511,2.511,0,0,0-1.373-.99,6.425,6.425,0,0,0-1.664-.331c-.053-.005-.1,0-.156-.007a6.437,6.437,0,0,0-.865-.008,5.923,5.923,0,0,0-1.015.147c-.035.009-.071.011-.106.02a6.53,6.53,0,0,0-1.091.38c-.039.017-.081.024-.12.042l.017,0c-.058.027-.116.04-.174.069a3.509,3.509,0,0,0-1.608,1.417,1.966,1.966,0,0,0,.113,2.154,2.081,2.081,0,0,0,1.213.508l1.877.338a8.383,8.383,0,0,0,2.455.2,3.224,3.224,0,0,0,2.216-1.188A2.593,2.593,0,0,0,717.891,218.791Z" transform="translate(-641.212 -184.995)"/>
            <path id="Trazado_151867" data-name="Trazado 151867" d="M713.143,249.93c.157-1.019.052-2.235.787-3.059l.2-.114a2.572,2.572,0,0,1,2.236.076,2.39,2.39,0,0,1,.883,1.873,8.468,8.468,0,0,1-.529,2.91,5.783,5.783,0,0,1-.594,1.453,1.595,1.595,0,0,1-3.019-.564A6,6,0,0,1,713.143,249.93Z" transform="translate(-643.345 -202.704)"/>
            <path id="Trazado_151868" data-name="Trazado 151868" d="M766.4,258.556c.157-1.019.052-2.234.787-3.058l.2-.114a2.569,2.569,0,0,1,2.236.076,2.39,2.39,0,0,1,.883,1.873,8.475,8.475,0,0,1-.529,2.91,5.8,5.8,0,0,1-.594,1.453,1.594,1.594,0,0,1-3.019-.564A6,6,0,0,1,766.4,258.556Z" transform="translate(-675.758 -207.955)"/>
            <path id="Trazado_151869" data-name="Trazado 151869" d="M711.9,361.122c-11.567,2.559-18.235.595-27.958-3.547,5.409,6.574,12,8.278,20.233,10.457a7.969,7.969,0,0,1,3.025-4.063A20.2,20.2,0,0,1,711.9,361.122Z" transform="translate(-625.674 -270.285)" fill="#ff7c51"/>
            <path id="Trazado_151870" data-name="Trazado 151870" d="M735.571,271.822c-.005-.022.3-.087.841-.278a9.522,9.522,0,0,0,2.142-1.073,9.244,9.244,0,0,0,1.292-1.032,9.078,9.078,0,0,0,1.241-1.432,9.21,9.21,0,0,0,1-1.833c.108-.328.343-.718.186-.974a.529.529,0,0,0-.421-.192,2.808,2.808,0,0,0-.558.034l-4.56.526a.093.093,0,0,1-.1-.08v-.017c.112-1.952.207-3.614.276-4.819.039-.568.071-1.028.095-1.372a3.056,3.056,0,0,1,.054-.488,3.008,3.008,0,0,1,.005.492c-.01.345-.025.805-.042,1.374-.051,1.206-.12,2.869-.2,4.823l-.1-.1,4.558-.544a3,3,0,0,1,.6-.034.723.723,0,0,1,.575.286.737.737,0,0,1,.027.63c-.061.184-.133.353-.2.528a9.265,9.265,0,0,1-1.036,1.866,9.614,9.614,0,0,1-2.607,2.476,8.82,8.82,0,0,1-2.2,1.028,5.493,5.493,0,0,1-.638.166A.978.978,0,0,1,735.571,271.822Z" transform="translate(-657.097 -210.161)" fill="#10100c"/>
            <path id="Trazado_151871" data-name="Trazado 151871" d="M569.8,149.07a21.875,21.875,0,0,0-25.5-14.011,13.713,13.713,0,0,0-6.753,3.418,7.884,7.884,0,0,0-2.353,6.973,8.613,8.613,0,0,0,4.533,5.5,25.517,25.517,0,0,0,7,2.194,18.914,18.914,0,0,0-8.758,11.524c-.556,2.158-.67,4.623.61,6.447,1.431,2.04,4.277,2.69,6.714,2.169a16.875,16.875,0,0,0,6.527-3.514,89.74,89.74,0,0,0,8.245-7.212c-8.65,18.484-.148,40.066,16.371,52.134l3.991-28.9c18.484-8.633,30.6-25.68,35.865-44.12C598.246,133.01,581.108,138.259,569.8,149.07Z" transform="translate(-535.056 -134.532)" fill="#10100c"/>
            <g id="Grupo_137446" data-name="Grupo 137446" transform="translate(34.265 46.014)">
              <path id="Trazado_151872" data-name="Trazado 151872" d="M637.133,277.2c-4.174.095-9.5-2.712-11.332-4.924a12.851,12.851,0,0,1-3.11-10.1,11.454,11.454,0,0,1,6.3-9.339c3.593-1.6,8.356-.527,10.456,2.8" transform="translate(-622.609 -252.107)" fill="#ffbc96"/>
              <path id="Trazado_151873" data-name="Trazado 151873" d="M642.14,272.405a5.763,5.763,0,1,0-10.93,3.365,10.577,10.577,0,0,0,2.845,3.408c.783.689,1.784,1.4,2.779,1.092a2.474,2.474,0,0,0,1.436-2.311c.063-.963-.144-1.937,0-2.891a2.172,2.172,0,0,1,1.78-1.988,6.629,6.629,0,0,1,1.022.136,1.082,1.082,0,0,0,.954-.268c.226-.26.141-.765-.2-.829" transform="translate(-627.545 -261.564)" fill="#ff7c51"/>
              <path id="Trazado_151874" data-name="Trazado 151874" d="M647.112,279.419a.186.186,0,0,1-.069-.01,1.388,1.388,0,0,1-.2-.057,2.4,2.4,0,0,1-.686-.385,3.223,3.223,0,0,1-.8-.953,4.554,4.554,0,0,1-.51-1.569,9.96,9.96,0,0,1-.073-1.995,5.835,5.835,0,0,1,.177-1.106,3.149,3.149,0,0,1,.5-1.088,2.047,2.047,0,0,1,1.025-.747,2.242,2.242,0,0,1,1.322.018,3.113,3.113,0,0,1,1.183.677,5.012,5.012,0,0,1,.875,1.085c.25.4.459.821.654,1.212l-.188.074a11.355,11.355,0,0,0-2.239-4.086,12.31,12.31,0,0,0-1.438-1.43,12.474,12.474,0,0,0-1.434-1.02,11.562,11.562,0,0,0-2.291-1.075c-.566-.187-.886-.267-.882-.285a1.158,1.158,0,0,1,.236.043c.152.04.384.076.669.171a10.7,10.7,0,0,1,2.339,1.029,11.4,11.4,0,0,1,2.939,2.449,11.385,11.385,0,0,1,2.3,4.147.1.1,0,0,1-.188.074c-.2-.39-.4-.8-.646-1.2a3.567,3.567,0,0,0-1.942-1.678,2.049,2.049,0,0,0-1.207-.024,1.856,1.856,0,0,0-.933.674,4.072,4.072,0,0,0-.661,2.093,10.111,10.111,0,0,0,.047,1.962,4.508,4.508,0,0,0,.466,1.535,3.236,3.236,0,0,0,.754.946A3.125,3.125,0,0,0,647.112,279.419Z" transform="translate(-634.435 -260.976)" fill="#10100c"/>
            </g>
          </g>
          <path id="Trazado_151875" data-name="Trazado 151875" d="M718.453,303.388a.831.831,0,0,1-.207.025,4.325,4.325,0,0,1-.6-.008,5.374,5.374,0,0,1-2.1-.626,5.293,5.293,0,0,1-2.256-2.327,5.6,5.6,0,0,1-.549-1.859,3.955,3.955,0,0,1,.252-2.07,1.664,1.664,0,0,1,.741-.8,1.764,1.764,0,0,1,1.047-.145,7.948,7.948,0,0,1,1.83.628l2.986,1.264,2.007.869.541.245a.1.1,0,1,1-.016.038l-.556-.21-2.031-.809-3-1.224a7.956,7.956,0,0,0-1.784-.6,1.564,1.564,0,0,0-.929.128,1.467,1.467,0,0,0-.649.7,3.8,3.8,0,0,0-.237,1.961,5.478,5.478,0,0,0,.519,1.8,5.219,5.219,0,0,0,2.157,2.284,5.6,5.6,0,0,0,2.041.674C718.166,303.387,718.453,303.369,718.453,303.388Z" transform="translate(-643.182 -232.539)" fill="#10100c"/>
        </g>
        <g id="Grupo_137449" data-name="Grupo 137449" transform="translate(145.599 46.098)">
          <path id="Trazado_151876" data-name="Trazado 151876" d="M937.407,439.767H862.881a4.85,4.85,0,0,1-4.849-4.849h0a4.85,4.85,0,0,1,4.849-4.849h74.526a4.85,4.85,0,0,1,4.849,4.849h0A4.85,4.85,0,0,1,937.407,439.767Z" transform="translate(-858.032 -360.505)" fill="#10100c"/>
          <path id="Trazado_151877" data-name="Trazado 151877" d="M1088.473,259.109l-29.779,68.318a4.849,4.849,0,0,1-6.383,2.508h0a4.85,4.85,0,0,1-2.508-6.383l29.779-68.318a4.849,4.849,0,0,1,6.383-2.508h0A4.85,4.85,0,0,1,1088.473,259.109Z" transform="translate(-974.505 -252.321)" fill="#10100c"/>
          <path id="Trazado_151878" data-name="Trazado 151878" d="M1059.979,439.337a.011.011,0,0,1-.008,0l-6.17-7.4a.01.01,0,0,1,0-.014.01.01,0,0,1,.014,0l6.17,7.4a.01.01,0,0,1,0,.014Z" transform="translate(-977.183 -361.629)" fill="#fbfbfb"/>
        </g>
        <g id="Grupo_137451" data-name="Grupo 137451" transform="translate(0 95.043)">
          <g id="Grupo_137450" data-name="Grupo 137450">
            <path id="Trazado_151879" data-name="Trazado 151879" d="M546.1,377.386s-15.369,11.769-23.336,27.9a304.47,304.47,0,0,0-18.555,47.636C497.546,475.1,486,516.219,486,516.219l53.542,3.048,64.746-67.8s-.914-21.4-5.562-32.635-12.4-29.053-13.946-30.215S546.1,377.386,546.1,377.386Z" transform="translate(-485.999 -377.386)" fill="#ff8c00"/>
            <path id="Trazado_151880" data-name="Trazado 151880" d="M629.428,389.768a11.141,11.141,0,0,1,1.58.07,24.446,24.446,0,0,1,4.485.923,30.056,30.056,0,0,1,6.722,2.916,24.515,24.515,0,0,1,7.344,6.49,21.78,21.78,0,0,1,2.793,5.068c.168.478.344.959.5,1.454.13.5.3,1,.4,1.517.242,1.031.4,2.095.59,3.175l2.39,13.93,5.632,32.873a.1.1,0,0,1-.079.111h0l-38.677,6.36-26.942,4.424a.1.1,0,0,1-.114-.081.1.1,0,0,1,0-.026c.626-6.77,1.376-13.307,2.154-19.571s1.612-12.248,2.472-17.9,1.732-10.986,2.641-15.931a44.843,44.843,0,0,1,4.105-13.251,26.781,26.781,0,0,1,3.294-5.036,22.522,22.522,0,0,1,3.886-3.664,20.4,20.4,0,0,1,7.693-3.508,20.887,20.887,0,0,1,5.3-.515,12.078,12.078,0,0,1,1.837.175l-.465-.054c-.308-.029-.767-.072-1.374-.085a21.2,21.2,0,0,0-5.279.547,20.4,20.4,0,0,0-7.649,3.521,22.447,22.447,0,0,0-3.857,3.657,26.718,26.718,0,0,0-3.269,5.022,35.575,35.575,0,0,0-2.456,6.162c-.084.277-.18.552-.255.835s-.146.568-.22.855c-.14.575-.314,1.147-.43,1.74-.245,1.182-.5,2.387-.707,3.627-.9,4.944-1.76,10.275-2.62,15.929s-1.679,11.64-2.456,17.9-1.52,12.8-2.144,19.564l-.115-.106,26.942-4.429,38.679-6.349-.08.111-5.6-32.876-2.37-13.933c-.189-1.08-.345-2.147-.584-3.17-.1-.516-.268-1.01-.4-1.508-.152-.492-.326-.97-.492-1.446a21.7,21.7,0,0,0-2.766-5.044,24.46,24.46,0,0,0-7.3-6.481,30.164,30.164,0,0,0-6.693-2.935,25.033,25.033,0,0,0-4.47-.951c-.517-.06-.911-.08-1.176-.089S629.428,389.768,629.428,389.768Z" transform="translate(-552.98 -384.81)" fill="#10100c"/>
            <path id="Trazado_151881" data-name="Trazado 151881" d="M644.913,503.014s.689,25.081,13.8,43.708c10.517,14.946,36.8,8.211,45.626-4.167,8.523-11.958,51.676-74.183,51.676-74.183l-21.858-17.64L687.1,506.918l-.553-10.517Z" transform="translate(-582.72 -422.027)" fill="#ffbd97"/>
            <path id="Trazado_151882" data-name="Trazado 151882" d="M904.874,422.945c3.324-6.36-4.1-5.686-4.1-5.686,3.4-5.709-4.957-6.549-4.957-6.549l1.493-2.154a3.428,3.428,0,0,0-.053-4.32c-1.331-1.67-5-1.315-5-1.315-9.656,1.756-23.488,20.531-23.488,20.531l19.1,22.126,20.105-17.069C910.944,421.934,904.874,422.945,904.874,422.945Z" transform="translate(-718.973 -392.909)" fill="#ffbc96"/>
            <path id="Trazado_151883" data-name="Trazado 151883" d="M808.727,412.677s.072-.1.221-.3l.66-.872c.572-.771,1.448-1.89,2.457-3.408a3.154,3.154,0,0,0,.558-1.3,2.651,2.651,0,0,0-.225-1.526,3.035,3.035,0,0,0-1.129-1.252,4.929,4.929,0,0,0-1.745-.6,10.23,10.23,0,0,0-4.1.173,8.822,8.822,0,0,0-2.1.8q-1.01.569-2.019,1.263c-1.346.918-2.715,1.944-4.106,3.054a54.181,54.181,0,0,0-4.179,3.642,7.075,7.075,0,0,0-.929,1.086c-.27.42-.578.8-.886,1.193-.621.776-1.27,1.548-1.935,2.325-1.328,1.556-2.718,3.137-4.15,4.753-.709.812-1.46,1.61-2.167,2.456l-2.16,2.564-4.456,5.287-9.373,11.117-28.6,33.879.009-.013a104.659,104.659,0,0,0-8,18.607c-.733,2.3-1.229,4.116-1.559,5.351-.159.616-.28,1.087-.363,1.411s-.131.48-.131.48.033-.166.108-.486l.341-1.416c.315-1.24.8-3.061,1.518-5.367a103.041,103.041,0,0,1,7.943-18.657l.009-.013L766.815,443l9.377-11.115,4.46-5.285,2.163-2.562c.712-.849,1.461-1.642,2.172-2.455,1.433-1.613,2.824-3.192,4.154-4.744.665-.776,1.315-1.545,1.934-2.317.307-.386.618-.772.876-1.173a7.162,7.162,0,0,1,.956-1.116,53.929,53.929,0,0,1,4.2-3.646c1.4-1.11,2.77-2.133,4.123-3.05q1.012-.693,2.035-1.264a8.967,8.967,0,0,1,2.131-.807,10.335,10.335,0,0,1,4.147-.16,5.034,5.034,0,0,1,1.782.619,3.131,3.131,0,0,1,1.16,1.3,2.744,2.744,0,0,1,.225,1.581,3.23,3.23,0,0,1-.579,1.329c-1.023,1.517-1.908,2.626-2.491,3.39l-.677.859C808.81,412.582,808.727,412.677,808.727,412.677Z" transform="translate(-633.489 -393.08)" fill="#10100c"/>
            <path id="Trazado_151884" data-name="Trazado 151884" d="M596.3,587.506l13.4-.825,11.155,24.914s-6.481-24.138-5.531-27.274Z" transform="translate(-553.134 -503.335)" fill="#10100c"/>
          </g>
          <path id="Trazado_151885" data-name="Trazado 151885" d="M945.027,437.2a3.867,3.867,0,0,1-.463.893,13.63,13.63,0,0,1-3.241,3.59,3.856,3.856,0,0,1-.841.551,6.783,6.783,0,0,1,.75-.663,18.593,18.593,0,0,0,3.212-3.557A6.75,6.75,0,0,1,945.027,437.2Z" transform="translate(-762.615 -413.788)" fill="#10100c"/>
          <path id="Trazado_151886" data-name="Trazado 151886" d="M956.4,452.289a2.241,2.241,0,0,1-.315.734,6.49,6.49,0,0,1-2.791,2.607,2.24,2.24,0,0,1-.754.265,8.823,8.823,0,0,0,3.86-3.607Z" transform="translate(-769.954 -422.974)" fill="#10100c"/>
        </g>
      </g>
    </g>
  </g>
</svg>
