<svg xmlns="http://www.w3.org/2000/svg" width="56.033" height="55.084" viewBox="0 0 56.033 55.084">
  <g id="Grupo_89017" data-name="Grupo 89017" transform="translate(-302.5 -4082.5)">
    <path id="Trazado_122023" data-name="Trazado 122023" d="M1459.307,476.531c0,14.935,10.67,17.553,27.635,17.553s27.4-2.144,27.4-17.078S1503.907,440,1486.942,440,1459.307,461.6,1459.307,476.531Z" transform="translate(-1156.307 3643)" fill="#00cbae" stroke="rgba(0,0,0,0)" stroke-width="1"/>
    <g id="Grupo_140263" data-name="Grupo 140263" transform="translate(-136.695 3593.099)">
      <g id="Grupo_140262" data-name="Grupo 140262" transform="translate(448.239 502.55)">
        <g id="Grupo_140261" data-name="Grupo 140261">
          <path id="Trazado_152786" data-name="Trazado 152786" d="M456.563,530.767a.552.552,0,0,1-.226-.049l-7.331-3.326a.546.546,0,0,1-.161-.884c5.472-5.472,10.269-7.921,13.511-6.894a.546.546,0,1,1-.33,1.041c-2.686-.849-6.981,1.357-11.844,6.071l6.607,3a.547.547,0,0,1-.226,1.044Z" transform="translate(-448.442 -510.187)"/>
          <path id="Trazado_152787" data-name="Trazado 152787" d="M478.713,554.7a.534.534,0,0,1-.1-.009.547.547,0,0,1-.4-.312l-3.326-7.331a.546.546,0,1,1,.995-.451l3,6.607c4.713-4.863,6.921-9.156,6.071-11.844a.546.546,0,1,1,1.042-.329c1.026,3.24-1.423,8.039-6.9,13.51A.545.545,0,0,1,478.713,554.7Z" transform="translate(-460.306 -519.834)"/>
          <g id="Grupo_140260" data-name="Grupo 140260" transform="translate(7.612)">
            <path id="Trazado_152789" data-name="Trazado 152789" d="M469.637,530.086a.546.546,0,0,1-.386-.16l-6.92-6.92a.545.545,0,0,1-.132-.56,28.681,28.681,0,0,1,6.72-11.332c7.862-7.862,19.713-8.538,20.214-8.563a.537.537,0,0,1,.413.159.545.545,0,0,1,.16.414c-.025.5-.7,12.351-8.562,20.214a28.669,28.669,0,0,1-11.333,6.72A.529.529,0,0,1,469.637,530.086Zm-6.293-7.611,6.439,6.438a27.417,27.417,0,0,0,10.587-6.348c6.557-6.557,7.937-16.322,8.192-18.87-2.548.254-12.313,1.635-18.87,8.192A27.418,27.418,0,0,0,463.344,522.475Z" transform="translate(-462.171 -502.55)"/>
          </g>
          <path id="Trazado_152790" data-name="Trazado 152790" d="M469.609,546.268a.546.546,0,0,1-.386-.16l-6.958-6.958a.546.546,0,0,1,.773-.773L470,545.336a.546.546,0,0,1-.386.933Z" transform="translate(-454.529 -518.731)"/>
          <path id="Trazado_152791" data-name="Trazado 152791" d="M469.609,546.268a.546.546,0,0,1-.386-.16l-6.958-6.958a.546.546,0,0,1,.773-.773L470,545.336a.546.546,0,0,1-.386.933Z" transform="translate(-454.529 -518.731)"/>
          <path id="Trazado_152792" data-name="Trazado 152792" d="M465.987,549.945a.547.547,0,0,1-.386-.16l-6.725-6.725a.546.546,0,0,1,.773-.773l6.725,6.725a.546.546,0,0,1-.386.933Z" transform="translate(-452.992 -520.504)"/>
          <path id="Trazado_152793" data-name="Trazado 152793" d="M485.8,527.069a3.411,3.411,0,1,1,2.412-1A3.387,3.387,0,0,1,485.8,527.069Zm0-5.728a2.318,2.318,0,1,0,1.639,3.956h0a2.317,2.317,0,0,0-1.639-3.956Z" transform="translate(-463.732 -510.579)"/>
          <path id="Trazado_152794" data-name="Trazado 152794" d="M448.785,553.422a.546.546,0,0,1-.386-.933l4.728-4.727a.546.546,0,0,1,.773.773l-4.728,4.727A.546.546,0,0,1,448.785,553.422Z" transform="translate(-448.239 -522.987)"/>
          <path id="Trazado_152795" data-name="Trazado 152795" d="M457.444,562.081a.546.546,0,0,1-.386-.933l4.728-4.727a.546.546,0,1,1,.773.773l-4.728,4.727A.545.545,0,0,1,457.444,562.081Z" transform="translate(-452.167 -526.916)"/>
          <path id="Trazado_152796" data-name="Trazado 152796" d="M456.506,555.874a.546.546,0,0,1-.386-.933l2.866-2.866a.546.546,0,0,1,.773.773l-2.866,2.866A.545.545,0,0,1,456.506,555.874Z" transform="translate(-451.741 -524.944)"/>
          <path id="Trazado_152797" data-name="Trazado 152797" d="M503.3,515.5a.547.547,0,0,1-.386-.16l-5.2-5.2a.546.546,0,0,1,.773-.773l5.2,5.2a.546.546,0,0,1-.386.933Z" transform="translate(-470.612 -505.573)"/>
        </g>
      </g>
    </g>
  </g>
</svg>
