<svg xmlns="http://www.w3.org/2000/svg" width="56.033" height="55.084" viewBox="0 0 56.033 55.084">
  <g id="Grupo_136739" data-name="Grupo 136739" transform="translate(-302.5 -4082.5)">
    <path id="Trazado_122023" data-name="Trazado 122023" d="M1459.307,476.531c0,14.935,10.67,17.553,27.635,17.553s27.4-2.144,27.4-17.078S1503.907,440,1486.942,440,1459.307,461.6,1459.307,476.531Z" transform="translate(-1156.307 3643)" fill="#00cbae" stroke="rgba(0,0,0,0)" stroke-width="1"/>
    <g id="Grupo_136740" data-name="Grupo 136740" transform="translate(-575.594 2907.585)">
      <path id="Trazado_151650" data-name="Trazado 151650" d="M991.336,1304.808h-1.174v-1.194h1.174Z" transform="translate(-73.567 -85.78)"/>
      <path id="Trazado_151651" data-name="Trazado 151651" d="M999.946,1303.654v1.167h-1.195v-1.167Z" transform="translate(-79.697 -85.809)"/>
      <path id="Trazado_151652" data-name="Trazado 151652" d="M1008.511,1304.828h-1.167v-1.195h1.167Z" transform="translate(-85.829 -85.794)"/>
      <g id="Grupo_140275" data-name="Grupo 140275" transform="translate(-166.452 913.004)">
        <g id="Grupo_140274" data-name="Grupo 140274" transform="translate(1053.046 265.484)">
          <path id="Trazado_152798" data-name="Trazado 152798" d="M1079.18,295.209a.605.605,0,0,1-.551-.851l4.626-10.375a.6.6,0,1,1,1.1.492l-4.626,10.376A.6.6,0,0,1,1079.18,295.209Z" transform="translate(-1063.139 -272.655)"/>
          <path id="Trazado_152799" data-name="Trazado 152799" d="M1058.273,318.89a.584.584,0,0,1-.091-.007.6.6,0,0,1-.507-.689l1.982-13.012a3.6,3.6,0,0,1,3.016-3.183l8.153-1.209a.6.6,0,0,1,.177,1.2l-8.146,1.208a2.4,2.4,0,0,0-2,2.136l-1.986,13.045A.6.6,0,0,1,1058.273,318.89Z" transform="translate(-1054.874 -279.44)"/>
          <path id="Trazado_152800" data-name="Trazado 152800" d="M1091.458,295.209a.6.6,0,0,1-.553-.359l-4.627-10.376a.6.6,0,0,1,1.1-.492l4.626,10.375a.605.605,0,0,1-.552.851Z" transform="translate(-1066.164 -272.655)"/>
          <path id="Trazado_152801" data-name="Trazado 152801" d="M1107.124,318.89a.6.6,0,0,1-.6-.514l-1.982-13.012a2.412,2.412,0,0,0-2.014-2.17l-8.138-1.207a.6.6,0,0,1,.177-1.2l8.145,1.208a3.611,3.611,0,0,1,3.028,3.217l1.978,12.979a.6.6,0,0,1-.506.689A.6.6,0,0,1,1107.124,318.89Z" transform="translate(-1069.189 -279.44)"/>
          <g id="Grupo_140264" data-name="Grupo 140264" transform="translate(8.43 26.312)">
            <path id="Rectángulo_35739" data-name="Rectángulo 35739" d="M2.81,0H20.455a2.81,2.81,0,0,1,2.81,2.81V13.815a0,0,0,0,1,0,0H0a0,0,0,0,1,0,0V2.81A2.81,2.81,0,0,1,2.81,0Z" transform="translate(0.605 0.604)" fill="#00cbae"/>
            <path id="Trazado_152802" data-name="Trazado 152802" d="M1090.858,324.023h-23.265a.6.6,0,0,1-.6-.6V311.3a2.306,2.306,0,0,1,2.3-2.3h19.867a2.306,2.306,0,0,1,2.3,2.3v12.116A.6.6,0,0,1,1090.858,324.023Zm-22.661-1.209h22.056V311.3a1.1,1.1,0,0,0-1.094-1.1h-19.867a1.1,1.1,0,0,0-1.094,1.1Z" transform="translate(-1066.988 -308.999)"/>
          </g>
          <path id="Trazado_152803" data-name="Trazado 152803" d="M1092.567,333.475H1054.86a1.814,1.814,0,0,1,0-3.628h37.707a1.814,1.814,0,0,1,0,3.628Z" transform="translate(-1053.046 -290.93)" fill="#00cbae"/>
          <g id="Grupo_140265" data-name="Grupo 140265" transform="translate(1.209 40.127)">
            <line id="Línea_114" data-name="Línea 114" x2="37.708" transform="translate(0.605 0.604)" fill="#fff"/>
            <path id="Trazado_152804" data-name="Trazado 152804" d="M1093.358,333.056h-37.708a.6.6,0,0,1,0-1.209h37.708a.6.6,0,0,1,0,1.209Z" transform="translate(-1055.046 -331.847)"/>
          </g>
          <path id="Trazado_152805" data-name="Trazado 152805" d="M1123.095,326.217" transform="translate(-1080.74 -289.495)" fill="none" stroke="#fff" stroke-linecap="round" stroke-linejoin="round" stroke-width="6"/>
          <g id="Grupo_140273" data-name="Grupo 140273" transform="translate(10.786)">
            <g id="Grupo_140272" data-name="Grupo 140272">
              <g id="Grupo_140271" data-name="Grupo 140271" transform="translate(1.209 1.209)">
                <g id="Grupo_140269" data-name="Grupo 140269">
                  <g id="Grupo_140268" data-name="Grupo 140268">
                    <path id="Trazado_152808" data-name="Trazado 152808" d="M1077.349,280.786a2.1,2.1,0,0,1-1.192.369,2.142,2.142,0,0,1-2.113-1.874,17.94,17.94,0,0,1-.154-2.361h-.006a8.076,8.076,0,1,1,16.136,0h0a17.956,17.956,0,0,1-.154,2.362,2.131,2.131,0,0,1-4.245-.287" transform="translate(-1073.28 -267.879)" fill="#00cbae"/>
                    <path id="Trazado_152809" data-name="Trazado 152809" d="M1087.358,281.364a2.754,2.754,0,0,1-2.737-2.765.6.6,0,0,1,1.209,0,1.526,1.526,0,0,0,3.041.209,17.4,17.4,0,0,0,.148-2.283,7.47,7.47,0,1,0-14.925-.077.678.678,0,0,1,0,.077,17.576,17.576,0,0,0,.148,2.281,1.541,1.541,0,0,0,1.514,1.348,1.5,1.5,0,0,0,.85-.263.6.6,0,0,1,.684,1,2.7,2.7,0,0,1-1.534.475,2.754,2.754,0,0,1-2.713-2.4,18.6,18.6,0,0,1-.158-2.358.577.577,0,0,1-.005-.081,8.68,8.68,0,1,1,17.344,0,18.666,18.666,0,0,1-.158,2.441A2.753,2.753,0,0,1,1087.358,281.364Z" transform="translate(-1072.885 -267.484)"/>
                  </g>
                </g>
                <g id="Grupo_140270" data-name="Grupo 140270" transform="translate(0.153 8.777)">
                  <path id="Trazado_152810" data-name="Trazado 152810" d="M1074.139,284.928a2.092,2.092,0,0,0,2.013,1.966,1.945,1.945,0,0,0,.316-.031c.881,3.581,3.047,6.117,5.585,6.117s4.7-2.537,5.585-6.117a1.9,1.9,0,0,0,.312.031,1.949,1.949,0,0,0,.113-3.895" transform="translate(-1073.534 -282.395)" fill="#00cbae"/>
                  <path id="Trazado_152811" data-name="Trazado 152811" d="M1081.658,293.189c-2.652,0-4.988-2.372-6.043-6.089a2.69,2.69,0,0,1-2.473-2.512.6.6,0,1,1,1.2-.11,1.5,1.5,0,0,0,1.411,1.416,1.375,1.375,0,0,0,.218-.024.605.605,0,0,1,.685.452c.833,3.384,2.841,5.657,5,5.657s4.164-2.273,5-5.657a.6.6,0,0,1,.684-.452,1.318,1.318,0,0,0,.215.024,1.344,1.344,0,0,0,.077-2.686.6.6,0,0,1-.568-.639.6.6,0,0,1,.639-.568,2.554,2.554,0,0,1,0,5.1C1086.646,290.816,1084.309,293.189,1081.658,293.189Z" transform="translate(-1073.139 -282)"/>
                </g>
                <path id="Trazado_152812" data-name="Trazado 152812" d="M1088.318,281.03a8.329,8.329,0,0,1-7.649-4.454.6.6,0,0,1,1.1-.5,7.108,7.108,0,0,0,6.547,3.745,8.351,8.351,0,0,0,2.15-.278.6.6,0,1,1,.312,1.168A9.561,9.561,0,0,1,1088.318,281.03Z" transform="translate(-1075.941 -270.74)"/>
              </g>
            </g>
          </g>
        </g>
      </g>
    </g>
  </g>
</svg>
