<svg id="Grupo_140254" data-name="Grupo 140254" xmlns="http://www.w3.org/2000/svg" xmlns:xlink="http://www.w3.org/1999/xlink" width="638.601" height="471.451" viewBox="0 0 638.601 471.451">
  <defs>
    <linearGradient id="linear-gradient" x1="-3.589" y1="-2.013" x2="-2.62" y2="-2.013" gradientUnits="objectBoundingBox">
      <stop offset="0" stop-color="#f9f9f9"/>
      <stop offset="1" stop-color="#438be3"/>
    </linearGradient>
    <linearGradient id="linear-gradient-2" x1="-63.742" y1="-3.989" x2="-62.337" y2="-3.989" xlink:href="#linear-gradient"/>
    <linearGradient id="linear-gradient-3" x1="-4.556" y1="-0.752" x2="-3.637" y2="-0.752" xlink:href="#linear-gradient"/>
    <linearGradient id="linear-gradient-4" x1="-3.391" y1="-1.243" x2="-2.437" y2="-1.243" xlink:href="#linear-gradient"/>
    <linearGradient id="linear-gradient-5" x1="-6.202" y1="-5.05" x2="-5.244" y2="-5.05" xlink:href="#linear-gradient"/>
    <linearGradient id="linear-gradient-6" x1="-14.961" y1="-4.171" x2="-13.88" y2="-4.171" xlink:href="#linear-gradient"/>
    <linearGradient id="linear-gradient-7" x1="-4.592" y1="-1.951" x2="-3.59" y2="-1.951" xlink:href="#linear-gradient"/>
    <linearGradient id="linear-gradient-8" x1="-7.723" y1="-1.276" x2="-6.796" y2="-1.276" xlink:href="#linear-gradient"/>
    <linearGradient id="linear-gradient-9" x1="-2.689" y1="-2.293" x2="-2.918" y2="-1.55" xlink:href="#linear-gradient"/>
    <linearGradient id="linear-gradient-10" x1="-5.838" y1="-3.675" x2="-5.336" y2="-3.063" xlink:href="#linear-gradient"/>
    <linearGradient id="linear-gradient-11" x1="-2.878" y1="-2.901" x2="-2.663" y2="-2.168" xlink:href="#linear-gradient"/>
    <linearGradient id="linear-gradient-12" x1="-5.728" y1="-6.129" x2="-4.733" y2="-6.129" xlink:href="#linear-gradient"/>
    <linearGradient id="linear-gradient-13" x1="-7.471" y1="-3.293" x2="-6.463" y2="-3.293" xlink:href="#linear-gradient"/>
    <linearGradient id="linear-gradient-14" x1="-7.555" y1="-2.902" x2="-6.573" y2="-2.902" xlink:href="#linear-gradient"/>
  </defs>
  <g id="Grupo_140229" data-name="Grupo 140229" transform="translate(445.238 151.008)" opacity="0.37">
    <path id="Trazado_152566" data-name="Trazado 152566" d="M2702.67-930.775l5.491,13.578-8.055,4.651-5.492-13.578-23.517-3.171,8.054-4.651Z" transform="translate(-2564.581 933.946)" fill="#438be3"/>
    <path id="Trazado_152567" data-name="Trazado 152567" d="M2652.423-901.765l5.492,13.579-8.055,4.651-5.491-13.579-23.518-3.17,8.056-4.651Z" transform="translate(-2535.638 917.235)" fill="#438be3" opacity="0.8"/>
    <path id="Trazado_152568" data-name="Trazado 152568" d="M2602.176-872.754l5.491,13.578-8.054,4.651-5.491-13.578-23.518-3.171,8.055-4.651Z" transform="translate(-2506.694 900.525)" fill="#438be3" opacity="0.6"/>
    <path id="Trazado_152569" data-name="Trazado 152569" d="M2551.93-843.744l5.492,13.578-8.056,4.651-5.492-13.578-23.517-3.171,8.056-4.651Z" transform="translate(-2477.751 883.814)" fill="#438be3" opacity="0.4"/>
    <path id="Trazado_152570" data-name="Trazado 152570" d="M2501.683-814.733l5.492,13.577-8.056,4.652-5.491-13.578-23.518-3.17,8.056-4.651Z" transform="translate(-2448.808 867.103)" fill="#438be3" opacity="0.2"/>
    <path id="Trazado_152571" data-name="Trazado 152571" d="M2451.438-785.722l5.491,13.578-8.055,4.651-5.491-13.579-23.517-3.17,8.056-4.651Z" transform="translate(-2419.865 850.392)" fill="#438be3" opacity="0.1"/>
  </g>
  <g id="Grupo_140230" data-name="Grupo 140230" transform="translate(332.286 64.915)" opacity="0.37">
    <path id="Trazado_152572" data-name="Trazado 152572" d="M2282.7-1135.558l2.509,6.206-3.681,2.125-2.51-6.206-10.749-1.449,3.681-2.126Z" transform="translate(-2219.593 1137.007)" fill="#438be3"/>
    <path id="Trazado_152573" data-name="Trazado 152573" d="M2259.74-1122.3l2.51,6.205-3.682,2.125-2.51-6.206-10.748-1.449,3.682-2.126Z" transform="translate(-2206.366 1129.37)" fill="#438be3" opacity="0.8"/>
    <path id="Trazado_152574" data-name="Trazado 152574" d="M2236.776-1109.041l2.509,6.205-3.681,2.125-2.51-6.205-10.749-1.449,3.682-2.126Z" transform="translate(-2193.138 1121.733)" fill="#438be3" opacity="0.6"/>
    <path id="Trazado_152575" data-name="Trazado 152575" d="M2213.812-1095.782l2.51,6.205-3.681,2.126-2.509-6.206-10.749-1.449,3.682-2.125Z" transform="translate(-2179.911 1114.095)" fill="#438be3" opacity="0.4"/>
    <path id="Trazado_152576" data-name="Trazado 152576" d="M2190.849-1082.524l2.511,6.206-3.682,2.125-2.51-6.206-10.748-1.449,3.682-2.125Z" transform="translate(-2166.684 1106.458)" fill="#438be3" opacity="0.2"/>
    <path id="Trazado_152577" data-name="Trazado 152577" d="M2167.885-1069.265l2.509,6.205-3.681,2.126-2.51-6.206-10.748-1.449,3.682-2.126Z" transform="translate(-2153.455 1098.821)" fill="#438be3" opacity="0.1"/>
  </g>
  <path id="Trazado_152578" data-name="Trazado 152578" d="M2307.565-1161.585h50.025v28.885l-14.216-8.209-62.292,35.966-21.593-12.466,62.293-35.967Z" transform="translate(-1882.248 1216.08)" fill="#438be3" opacity="0.37"/>
  <path id="Trazado_152579" data-name="Trazado 152579" d="M2659.35-743.64h26.8v15.475l-7.615-4.4L2645.162-713.3l-11.567-6.678,33.373-19.269Z" transform="translate(-2097.741 975.334)" fill="#438be3" opacity="0.37"/>
  <path id="Trazado_152580" data-name="Trazado 152580" d="M2541.343-676.671c2.272,1.312,2.272,3.438,0,4.75L2377.458-577.3l-8.228-4.75,163.887-94.622A9.089,9.089,0,0,1,2541.343-676.671Z" transform="translate(-1945.46 937.324)" fill="#438be3" opacity="0.37"/>
  <path id="Trazado_152581" data-name="Trazado 152581" d="M2716.034-905.062c1.528.882,1.528,2.312,0,3.193L2605.86-838.258l-5.531-3.193,110.175-63.61A6.113,6.113,0,0,1,2716.034-905.062Z" transform="translate(-2078.579 1068.697)" fill="#438be3" opacity="0.37"/>
  <path id="Trazado_152582" data-name="Trazado 152582" d="M2447.361-676.865a1.2,1.2,0,0,1,0,2.27l-78.326,45.222-3.933-2.27,78.327-45.223A4.346,4.346,0,0,1,2447.361-676.865Z" transform="translate(-1943.083 937.14)" fill="#438be3" opacity="0.37"/>
  <path id="Trazado_152583" data-name="Trazado 152583" d="M2337.63-1041.224a1.2,1.2,0,0,1,0,2.27L2259.3-993.732l-3.932-2.27,78.327-45.223A4.346,4.346,0,0,1,2337.63-1041.224Z" transform="translate(-1879.875 1147.02)" fill="#438be3" opacity="0.37"/>
  <path id="Trazado_152584" data-name="Trazado 152584" d="M2025.838-1163.5a1.2,1.2,0,0,1,0,2.271L1947.512-1116l-3.933-2.27,78.327-45.223A4.35,4.35,0,0,1,2025.838-1163.5Z" transform="translate(-1700.276 1217.451)" fill="#438be3" opacity="0.37"/>
  <path id="Trazado_152585" data-name="Trazado 152585" d="M1585.768-903.345,1369.718-778.6v-62.63l161.815-93.427Z" transform="translate(-1369.718 1085.365)" fill="#438be3" opacity="0.2" style="mix-blend-mode: multiply;isolation: isolate"/>
  <path id="Trazado_152586" data-name="Trazado 152586" d="M1748.087-1057.34l-53.867,31.1-53.865-31.1,53.865-31.1Z" transform="translate(-1525.611 1173.946)" fill="#438be3"/>
  <path id="Trazado_152587" data-name="Trazado 152587" d="M1821.269-953.455l-53.866,31.1v-61.632l53.866-31.1Z" transform="translate(-1598.794 1131.693)" fill="#1d65bd"/>
  <path id="Trazado_152588" data-name="Trazado 152588" d="M1694.22-983.987v61.632l-53.865-31.1v-61.632Z" transform="translate(-1525.611 1131.693)" fill="#044ca4"/>
  <path id="Trazado_152589" data-name="Trazado 152589" d="M1990.843-1105.024,1369.718-746.4v-62.63l566.89-327.309Z" transform="translate(-1369.718 1201.537)" fill="#438be3" opacity="0.2" style="mix-blend-mode: multiply;isolation: isolate"/>
  <path id="Trazado_152590" data-name="Trazado 152590" d="M2703.523-1259.018l-53.867,31.1-53.865-31.1,53.865-31.1Z" transform="translate(-2075.964 1290.117)" fill="#ff59a1"/>
  <path id="Trazado_152591" data-name="Trazado 152591" d="M2776.7-1155.133l-53.867,31.1v-61.632l53.867-31.1Z" transform="translate(-2149.146 1247.865)" fill="#d9337b"/>
  <path id="Trazado_152592" data-name="Trazado 152592" d="M2649.656-1185.665v61.632l-53.865-31.1v-61.632Z" transform="translate(-2075.964 1247.865)" fill="#b30d55"/>
  <path id="Trazado_152593" data-name="Trazado 152593" d="M1707.4-892.644,1369.718-697.675V-760.3L1653.162-923.96Z" transform="translate(-1369.718 1079.202)" fill="#438be3" opacity="0.2" style="mix-blend-mode: multiply;isolation: isolate"/>
  <path id="Trazado_152594" data-name="Trazado 152594" d="M2034.967-1046.64l-53.867,31.1-53.865-31.1,53.865-31.1Z" transform="translate(-1690.861 1167.783)" fill="#438be3"/>
  <path id="Trazado_152595" data-name="Trazado 152595" d="M2108.149-942.755l-53.867,31.1v-61.632l53.867-31.1Z" transform="translate(-1764.043 1125.53)" fill="#1d65bd"/>
  <path id="Trazado_152596" data-name="Trazado 152596" d="M1981.1-973.287v61.632l-53.865-31.1v-61.632Z" transform="translate(-1690.861 1125.53)" fill="#044ca4"/>
  <path id="Trazado_152597" data-name="Trazado 152597" d="M1780.323-642.565,1470.522-463.7h-100.8v-4.426L1726.086-673.88Z" transform="translate(-1369.718 935.15)" fill="#438be3" opacity="0.2" style="mix-blend-mode: multiply;isolation: isolate"/>
  <path id="Trazado_152598" data-name="Trazado 152598" d="M2206.971-796.564l-53.867,31.1-53.865-31.1,53.865-31.1Z" transform="translate(-1789.939 1023.733)" fill="#438be3"/>
  <path id="Trazado_152599" data-name="Trazado 152599" d="M2280.153-692.679l-53.867,31.1v-61.632l53.867-31.1Z" transform="translate(-1863.121 981.48)" fill="#1d65bd"/>
  <path id="Trazado_152600" data-name="Trazado 152600" d="M2153.1-723.211v61.632l-53.865-31.1v-61.632Z" transform="translate(-1789.939 981.48)" fill="#044ca4"/>
  <g id="Grupo_140232" data-name="Grupo 140232" transform="translate(186.832 137.115)">
    <path id="Trazado_152601" data-name="Trazado 152601" d="M1896.4-759.988a19.528,19.528,0,0,0-1.381,2.328c-.276.7-.609,1.565.477,2.283a3.486,3.486,0,0,0,3.794.02c1.265-.783,2.193-2.108,4.053-2.131a7.648,7.648,0,0,0,4.884-2.378,1.939,1.939,0,0,0-.338-2.908,5.687,5.687,0,0,0-3.433-.693,8.59,8.59,0,0,0-3.365.892Z" transform="translate(-1858.977 849.639)" fill="#001135"/>
    <path id="Trazado_152602" data-name="Trazado 152602" d="M1873.189-846.914s-3.652,3.733-4.119,8.332,1.54,8.066,5.876,8.1,3.621-11.388,3.621-11.388l-.79-1.038Z" transform="translate(-1844.15 897.706)" fill="#1058b0"/>
    <path id="Trazado_152603" data-name="Trazado 152603" d="M1908.871-817.81c.542-2.961-4.721-8.35-4.721-8.35L1897.115-809s.6,9.28-.172,13.022,3.113,2.772,6.242,1.555c1.594-.621,1.332-3.312,1.085-4.271a24.558,24.558,0,0,1,.308-8.7C1905.407-811.105,1908.33-814.847,1908.871-817.81Z" transform="translate(-1860.185 885.752)" fill="#1058b0"/>
    <path id="Trazado_152604" data-name="Trazado 152604" d="M1969.139-958.191a1.037,1.037,0,0,0,1.122.472,5.855,5.855,0,0,1,2.492-.147c.5.21.822.739.613,1s-.937.155-1.673.312-1.806.54-2.351.676a17.021,17.021,0,0,1-2.244.075,9.835,9.835,0,0,0-1.778.433c-.058.012-.8.5-.8.5l-1.966-3,1.042-.719a23.868,23.868,0,0,1,1.222-3.311c.5-.878,1.177-2.833,1.5-3.487s.623-1.386.82-1.314.3.361.116.991-.739,2.89-.739,2.89,1.767-2.484,2.242-3.107.777-.892,1.023-.741.191.961-.255,1.586-2.085,3.251-2.085,3.251,1.634-1.517,2.151-2.137,1.653-2.142,2.042-1.96.417.7-.026,1.328-2.951,3.636-2.87,3.771,1.494-.79,2.017-1.26,1.813-1.649,2.222-1.3-.163,1.186-.727,1.727-2.365,1.858-2.74,2.342S1969.01-958.365,1969.139-958.191Z" transform="translate(-1898.035 966.715)" fill="#ffcda8"/>
    <path id="Trazado_152605" data-name="Trazado 152605" d="M1929.5-947.346s2,1.4,1.9,3.352l-1.714,1.43a8.668,8.668,0,0,1-1.226,1.025c-.707.481-4.165,2.677-4.165,2.677L1909.1-929.5s-7.037-.866-5.21-2.783a32.6,32.6,0,0,1,6.792-5.631c2.6-1.518,5.6-3.113,5.6-3.113s4.933-2.829,5.967-3.287a38.885,38.885,0,0,1,4.819-2.01,1.53,1.53,0,0,0,.907-.308Z" transform="translate(-1864.073 955.558)" fill="#e6f6ff"/>
    <path id="Trazado_152606" data-name="Trazado 152606" d="M1930.527-942.706l-.822-.984.643,1.248-2.279,1.3,2.242-.874s-2.54,1.933-3.734,2.769a86,86,0,0,1-11.273,4.729c-1.742.488-7.113,2.907-8.288,5.986a20.748,20.748,0,0,0,4.061.933l15.189-9.367s3.458-2.2,4.165-2.677a8.657,8.657,0,0,0,1.226-1.025l1.714-1.43a3.319,3.319,0,0,0-.579-1.955Z" transform="translate(-1866.046 953.66)" fill="#c7deeb"/>
    <path id="Trazado_152607" data-name="Trazado 152607" d="M1818.7-726.363a8.706,8.706,0,0,0-2.438.533,11.743,11.743,0,0,0-2.035,1.346s2.754.979,3,3.048a14.5,14.5,0,0,1,.232,3.894c-.119,1.819-.893,4.163.381,4.383s1.819.121,2.073-.566.416-1.017.136-1.5a3.812,3.812,0,0,0-.8-.89,29.015,29.015,0,0,0,.787-3.478C1820.154-720.765,1820.579-725.529,1818.7-726.363Z" transform="translate(-1812.595 828.268)" fill="#001135"/>
    <path id="Trazado_152608" data-name="Trazado 152608" d="M1817.94-711.663l-.051-.029c-.048.152-.114.325-.192.525-.255.687-.8.79-2.073.566s-.5-2.564-.382-4.383a14.491,14.491,0,0,0-.232-3.894c-.245-2.069-3-3.048-3-3.048l-1.3.863a15.175,15.175,0,0,1,1.288,3.162,2.958,2.958,0,0,1-.4,1.946c-.55.725-2.056,2.85-.583,3.736a22.771,22.771,0,0,0,4.624,2.2C1816.4-709.884,1818.144-710.31,1817.94-711.663Z" transform="translate(-1810.383 825.711)" fill="#181818"/>
    <path id="Trazado_152609" data-name="Trazado 152609" d="M1908.507-759.36l0,0a2.342,2.342,0,0,1-.444,1.862,7.648,7.648,0,0,1-4.884,2.378c-1.86.023-2.787,1.348-4.053,2.131a3.486,3.486,0,0,1-3.794-.02,1.435,1.435,0,0,1-.749-1.13l-.018.017-.107,1.2s.282,1.029,2.111,1.342,3.9-1.891,3.9-1.891l.036-.422s1.53-1.121,2.271-1.054a8.788,8.788,0,0,0,3.635-.826C1907.461-756.318,1909.422-758.383,1908.507-759.36Z" transform="translate(-1858.81 847.275)" fill="#181818"/>
    <path id="Trazado_152610" data-name="Trazado 152610" d="M1849.529-837.472a12.487,12.487,0,0,0-3.579,6,17.167,17.167,0,0,0,.346,7.67,92.986,92.986,0,0,0-3.993,9.875c-1.39,4.407-1.809,5.631-2.93,6.808-1.133,1.2-3.861,2.362-7.193,5.628s-7.408,8.7-9.079,9.765a30.116,30.116,0,0,1-3.137,1.745,17.924,17.924,0,0,1,2.216,4.194c.381,1.609.446,4.848.795,4.035,0,0,6.83-7.135,9.237-8.688a173.052,173.052,0,0,0,13.6-10.825,103.094,103.094,0,0,0,9.338-13.223c2.093-3.956,4.985-13.394,5.9-20.269a17.874,17.874,0,0,1-5.727-.818C1852.178-836.543,1849.529-837.472,1849.529-837.472Z" transform="translate(-1815.902 892.268)" fill="#2971c9"/>
    <path id="Trazado_152611" data-name="Trazado 152611" d="M1911.539-925.959s3.9-1.036,4.835-2.6,1.036-5.158,1.853-7.043,2.8-4.185,5.7-3.963,5.471,1.452,6.016,3.849a7.292,7.292,0,0,1-.085,4.224c-.22,1.016-.39,1.684-.993,2a1.307,1.307,0,0,0-.679,1.215,4.621,4.621,0,0,1-1.219,2.015c-.8.925-2.272,2.476-3.032,2.483a3.164,3.164,0,0,1-1.509-.488l-.826,2.219s-.5,1.692-3.17,1.952S1911.794-922.831,1911.539-925.959Z" transform="translate(-1868.651 951.083)" fill="#ffcda8"/>
    <path id="Trazado_152612" data-name="Trazado 152612" d="M1934.471-916.693a3.41,3.41,0,0,1,.694-2.784l-.868-1.65s-4.158,8.3-6.679,11.667c.021,0,.046,0,.07,0,2.666-.261,3.169-1.952,3.169-1.952l.826-2.219a3.166,3.166,0,0,0,1.509.488c.5,0,1.307-.678,2.032-1.4C1934.812-914.726,1934.342-915.238,1934.471-916.693Z" transform="translate(-1877.913 940.455)" fill="#d9a782"/>
    <path id="Trazado_152613" data-name="Trazado 152613" d="M1924.3-930.726a9.469,9.469,0,0,0,2.287,1.776c1.441.813,1.638.872,2.913.262s3.772-2.49,4.541-2.588.609,1.034.846,1.055a.549.549,0,0,0,.472-.327,6.164,6.164,0,0,1,1.524-2.156c.705-.418,1.068-.365,1.282-1.086a5.1,5.1,0,0,0-2.425-5.522,7.13,7.13,0,0,0-7.373-.661,6.1,6.1,0,0,0-3.056,4C1924.879-934.426,1924.3-930.726,1924.3-930.726Z" transform="translate(-1876.002 951.732)" fill="#412999"/>
    <path id="Trazado_152614" data-name="Trazado 152614" d="M1935.361-922.216a8.041,8.041,0,0,1,1-1.664,12.738,12.738,0,0,1-5.437.267,10.533,10.533,0,0,1-5.939-2.628c-.349,1.707-.684,3.846-.684,3.846a9.466,9.466,0,0,0,2.287,1.776c1.441.813,1.638.872,2.913.262s3.772-2.49,4.541-2.588.609,1.034.846,1.055A.55.55,0,0,0,1935.361-922.216Z" transform="translate(-1876.002 943.401)" fill="#281080"/>
    <path id="Trazado_152615" data-name="Trazado 152615" d="M1894.452-911.7l-.406-.033s-4.389-1.226-5.671-.294-5.576,6.079-6.448,9.328-1.7,8.452-2.087,10.767-.641,3.708-1.606,4.778-1.969,2.4-.012,3.989,2.22,3.056,7.915,4.868,8.18,2.723,8.834.649-.161-3.794,2.337-7.473,5.292-8.2,6.767-9.733-.046-10.958-.046-10.958l-1.466-.438Z" transform="translate(-1848.815 935.417)" fill="#e6f6ff"/>
    <path id="Trazado_152616" data-name="Trazado 152616" d="M1811.371-719.742a7.355,7.355,0,0,1,3.059,5.032s-1.735-2.008-3.023-2.081C1811.407-716.791,1809.764-720.556,1811.371-719.742Z" transform="translate(-1810.546 824.519)" fill="#001135"/>
    <g id="Grupo_140231" data-name="Grupo 140231" transform="translate(37.855 37.111)">
      <path id="Trazado_152617" data-name="Trazado 152617" d="M1910.336-872.135c-1.754,3.261-3.115,9.933-4.736,11.548s-2.526,1.786-3.791,1.676l1.095-2.422a5.339,5.339,0,0,1-3.235,2.325c5.318,1.7,7.668,2.486,8.3.477.659-2.074-.161-3.794,2.337-7.473s5.292-8.2,6.767-9.733c.484-.5.646-1.856.646-3.448l-1.369.52S1912.091-875.395,1910.336-872.135Z" transform="translate(-1899.668 879.185)" fill="#c7deeb"/>
      <path id="Trazado_152618" data-name="Trazado 152618" d="M1907.3-837.211c.03-.062.043-.1.043-.1Z" transform="translate(-1904.063 855.063)" fill="#c7deeb"/>
    </g>
    <path id="Trazado_152619" data-name="Trazado 152619" d="M1990.195-944.126s.168-3.127.366-4.07.409-3.125,1-3.126.527.713.481,1.244-.366,3.9-.056,3.932.891-3.136,1.116-3.781.341-2.067.987-1.945.5,1.042.351,1.659a38.935,38.935,0,0,0-.949,4.591,20.817,20.817,0,0,0,1.131-3.132c.179-.54.482-2.185,1.085-1.991s.361,1.528.17,2.213-1.143,3.262-.946,3.52,1.269-1.956,1.509-2.378.714-.952,1.032-.795-.12,1.32-.437,1.994a8.878,8.878,0,0,0-.759,2.278,27.133,27.133,0,0,1-.949,2.745,4.452,4.452,0,0,1-1.118,1.932c-.434.313-.633.479-.633.479l-1.136,1.32-2.809-2.266.59-.493a6.579,6.579,0,0,1-1.039-1.914,10.869,10.869,0,0,0-.851-2.663c-.406-.628-.778-1.42-.316-1.637a1.025,1.025,0,0,1,1.2.44C1989.461-945.634,1990.195-944.126,1990.195-944.126Z" transform="translate(-1912.58 958.17)" fill="#ffcda8"/>
    <path id="Trazado_152620" data-name="Trazado 152620" d="M1957.07-923.133s-.2-2.131-3.273-1.507l-1.205.552a6.416,6.416,0,0,0-1.677.4,57.066,57.066,0,0,0-4.805,3.108,20.154,20.154,0,0,1-3.916,2.436c-1.133.51-4.548,2.674-5.694,3.3s-2.777,1.667-4.072,1.789a6.4,6.4,0,0,0-5.222,2.437c-1.971,2.372-3.885,11.552-2.024,10,3.157-2.632,6.136-2.468,9.094-3.692,3.6-1.491,5.969-4.444,7.345-5.248s4.514-3.193,5.495-3.737a55.842,55.842,0,0,0,5.2-3.31,35,35,0,0,0,3.212-3.862,11.78,11.78,0,0,0,.487-1.258Z" transform="translate(-1876.073 942.545)" fill="#e6f6ff"/>
    <path id="Trazado_152621" data-name="Trazado 152621" d="M1969.9-923.41l-1.749,2.267a4.188,4.188,0,0,0-1.269-1.056l.363.434-1.666,1.391,1.913-.828a4.954,4.954,0,0,1-1.337,3.592c-1.558,1.75-9.329,6.827-10.994,7.833a51.462,51.462,0,0,0-7.505,6.246c3.6-1.491,5.968-4.444,7.345-5.248s4.514-3.193,5.5-3.737a55.962,55.962,0,0,0,5.2-3.31,35.027,35.027,0,0,0,3.211-3.862,11.66,11.66,0,0,0,.487-1.258l1.058-1.411A1.826,1.826,0,0,0,1969.9-923.41Z" transform="translate(-1889.458 941.77)" fill="#c7deeb"/>
    <path id="Trazado_152622" data-name="Trazado 152622" d="M1918.694-913.054s5.079,1.646,6.785,6.412a21.41,21.41,0,0,1-6.358-2.674c-2.867-1.905-2.16-2.808-2.16-2.808Z" transform="translate(-1871.73 935.805)" fill="#e8f5ff"/>
  </g>
  <g id="Grupo_140235" data-name="Grupo 140235" transform="translate(267.416 242.134)">
    <path id="Trazado_152623" data-name="Trazado 152623" d="M2009.357-493.732h0a2.261,2.261,0,0,1-.27.665,3.273,3.273,0,0,1-2.557,1.171c-.79-.078-1.243-3.694-1.262-5.152a9.094,9.094,0,0,0-.9-4.054,4.819,4.819,0,0,0-2.285-1.841l-.974.909.814,2.146s.33.188.35,1.248c0,0-.9,2.808-.383,3.327a42.8,42.8,0,0,0,4.525,3.866,3.7,3.7,0,0,0,2.372-.878C2009.152-492.855,2009.553-493.361,2009.357-493.732Z" transform="translate(-2000.828 594.552)" fill="#181818"/>
    <path id="Trazado_152624" data-name="Trazado 152624" d="M2007.354-507.189a19.735,19.735,0,0,0-3.951,1.8,4.817,4.817,0,0,1,2.285,1.841,9.1,9.1,0,0,1,.9,4.054c.018,1.458.471,5.074,1.261,5.152a3.275,3.275,0,0,0,2.557-1.171c.375-.661.38-1.115.075-1.432s-1.5-.229-1.341-1.109.556-4.113.556-4.113S2009.821-507.381,2007.354-507.189Z" transform="translate(-2002.151 597.001)" fill="#001135"/>
    <path id="Trazado_152625" data-name="Trazado 152625" d="M2001.063-500.679a5.824,5.824,0,0,1,2.858,4.252,8.69,8.69,0,0,0-1.945-1.483,4.4,4.4,0,0,1-.912-.453S1999.684-501.432,2001.063-500.679Z" transform="translate(-2000.451 593.316)" fill="#001135"/>
    <path id="Trazado_152626" data-name="Trazado 152626" d="M2117.065-524.6h0a2.136,2.136,0,0,1-.44,2.035c-1.073,1.343-2.99,1.829-4.591,2.086s-2.968,1.792-4.638,2.289-2.154-.037-2.154-.037l.352.87a1.323,1.323,0,0,0,1.646.332,32.835,32.835,0,0,0,3.438-1.654l-.177-.671a12.486,12.486,0,0,1,2.253-.789,5.454,5.454,0,0,0,3.4-1.454C2117.451-522.842,2117.713-524.092,2117.065-524.6Z" transform="translate(-2060.813 607.027)" fill="#181818"/>
    <path id="Trazado_152627" data-name="Trazado 152627" d="M2031.876-610.162a20.024,20.024,0,0,0-3.359,6.513c-1.156,3.882-1.569,9.734-1.867,11.269s-1.21,8.556-1.684,9.32-4.285,1.868-6.575,4.577-6.261,9.488-7.3,10.576-2.107,1.494-1.77,2.218,2.489,7.191,3.313,7.559,2.145-3.416,3.614-5.489,9.252-11.012,11.709-12.76,4.887-5.59,5.757-7.637,4.806-13.915,4.806-13.915l-2.17-9.984Z" transform="translate(-2005.525 656.313)" fill="#1058b0"/>
    <path id="Trazado_152628" data-name="Trazado 152628" d="M2103.863-524.108a8.982,8.982,0,0,0-.134,2.565,5.825,5.825,0,0,0,.61,1.714s.483.537,2.154.037,3.036-2.034,4.638-2.289,3.518-.743,4.591-2.087a1.907,1.907,0,0,0-.724-3.158c-1.12-.285-5.911.58-5.911.58s1.023,1.415.133,2.163S2105.889-523.776,2103.863-524.108Z" transform="translate(-2059.91 608.631)" fill="#001135"/>
    <path id="Trazado_152629" data-name="Trazado 152629" d="M2069.031-604.865s-1.6,2.989-2.49,4.982-1.269,8.146,3.473,9.481a89.059,89.059,0,0,0,11.583,2.1,45.645,45.645,0,0,0-1.255,6.324c-.142,2.168,1.211,9.036,1.232,11.266s.223,4.036.223,4.036.28.884,2.928.153,4.543-3.378,4.224-5.244a82.649,82.649,0,0,1-.934-11.9c.077-4.074.438-7.835-.26-9.585a8.264,8.264,0,0,0-4.746-4.924c-3.027-1.382-4.412-1.917-4.412-1.917l.824-2.24S2075.75-601.794,2069.031-604.865Z" transform="translate(-2038.203 653.262)" fill="#2971c9"/>
    <g id="Grupo_140234" data-name="Grupo 140234" transform="translate(25.821 0)">
      <path id="Trazado_152630" data-name="Trazado 152630" d="M2139.857-711.427a.919.919,0,0,0,1.012.381,5.18,5.18,0,0,1,2.207-.213c.448.171.753.63.577.866s-.829.17-1.475.333-1.586.54-2.068.678a15.145,15.145,0,0,1-1.99.142,8.729,8.729,0,0,0-1.564.442c-.049.013-.7.472-.7.472l-1.846-2.6.9-.673a20.924,20.924,0,0,1,.975-2.98c.42-.8.953-2.556,1.215-3.149s.508-1.252.684-1.194.279.31.134.876-.561,2.592-.561,2.592,1.488-2.265,1.891-2.834.658-.817.883-.691.2.847-.172,1.416-1.745,2.957-1.745,2.957,1.4-1.4,1.839-1.968,1.4-1.959,1.75-1.809.394.61.02,1.181-2.5,3.326-2.425,3.444,1.3-.751,1.75-1.185,1.555-1.525,1.932-1.227-.1,1.059-.589,1.558-2.04,1.729-2.359,2.171S2139.735-711.578,2139.857-711.427Z" transform="translate(-2103.207 719.014)" fill="#ffcda8"/>
      <path id="Trazado_152631" data-name="Trazado 152631" d="M2105.308-701.33a3.962,3.962,0,0,1,1.8,2.915l-1.474,1.327a7.577,7.577,0,0,1-1.055.95c-.611.451-3.611,2.516-3.611,2.516l-13.182,8.824s-6.279-.539-4.72-2.3a28.987,28.987,0,0,1,5.849-5.226c2.258-1.435,4.869-2.951,4.869-2.951s4.29-2.675,5.192-3.116a34.525,34.525,0,0,1,4.217-1.945,1.364,1.364,0,0,0,.8-.3Z" transform="translate(-2073.715 708.828)" fill="#e6f6ff"/>
      <path id="Trazado_152632" data-name="Trazado 152632" d="M2106.368-697.236l-.763-.847.612,1.088-1.98,1.23,1.96-.85s-2.19,1.8-3.224,2.584a76.706,76.706,0,0,1-9.858,4.573c-1.531.492-6.222,2.817-7.164,5.591a18.416,18.416,0,0,0,3.639.7L2102.772-692s3-2.064,3.611-2.515a7.58,7.58,0,0,0,1.055-.95l1.474-1.327a2.919,2.919,0,0,0-.579-1.718Z" transform="translate(-2075.522 707.2)" fill="#c7deeb"/>
      <path id="Trazado_152633" data-name="Trazado 152633" d="M2089.975-681.118s3.43-1.05,4.209-2.468.749-4.615,1.411-6.317,2.347-3.811,4.931-3.708,4.907,1.109,5.469,3.22a6.447,6.447,0,0,1,.065,3.756c-.161.908-.292,1.508-.815,1.809a1.159,1.159,0,0,0-.565,1.1,4.078,4.078,0,0,1-1.015,1.831c-.683.849-1.937,2.275-2.61,2.305a2.828,2.828,0,0,1-1.357-.382l-.661,2s-.39,1.52-2.751,1.84S2090.3-678.349,2089.975-681.118Z" transform="translate(-2077.84 704.383)" fill="#ffcda8"/>
      <path id="Trazado_152634" data-name="Trazado 152634" d="M2110.561-673.4a3.027,3.027,0,0,1,.523-2.5l-.826-1.436s-3.419,7.514-5.547,10.583l.063-.005c2.359-.32,2.75-1.84,2.75-1.84l.662-2a2.826,2.826,0,0,0,1.357.383c.442-.02,1.138-.646,1.757-1.313C2110.928-671.666,2110.493-672.106,2110.561-673.4Z" transform="translate(-2086.328 695.006)" fill="#d9a782"/>
      <path id="Trazado_152635" data-name="Trazado 152635" d="M2100.99-685.558a8.4,8.4,0,0,0,2.087,1.5c1.309.675,1.484.72,2.6.136s3.269-2.336,3.946-2.448.575.9.788.909a.49.49,0,0,0,.41-.306,5.438,5.438,0,0,1,1.281-1.965c.612-.394.937-.361,1.1-1.008a4.534,4.534,0,0,0-2.337-4.825,6.333,6.333,0,0,0-6.569-.344,5.419,5.419,0,0,0-2.583,3.652C2101.378-688.864,2100.99-685.558,2100.99-685.558Z" transform="translate(-2084.185 704.986)" fill="#412999"/>
      <path id="Trazado_152636" data-name="Trazado 152636" d="M2110.82-678.069a7.011,7.011,0,0,1,.834-1.511,11.344,11.344,0,0,1-4.825.417,9.368,9.368,0,0,1-5.36-2.138c-.253,1.528-.479,3.439-.479,3.439a8.4,8.4,0,0,0,2.087,1.5c1.309.674,1.484.72,2.6.136s3.269-2.336,3.946-2.448.575.9.788.909A.489.489,0,0,0,2110.82-678.069Z" transform="translate(-2084.185 697.291)" fill="#281080"/>
      <path id="Trazado_152637" data-name="Trazado 152637" d="M2075.882-667.933l-.361-.016s-3.938-.946-5.046-.074-4.753,5.585-5.418,8.5-1.229,7.564-1.5,9.633-.448,3.315-1.269,4.3-1.67,2.2.119,3.543,2.074,2.641,7.192,4.062,7.355,2.148,7.87.283-.272-3.363,1.829-6.716,4.428-7.46,5.688-8.869-.4-9.731-.4-9.731l-1.319-.34Z" transform="translate(-2061.353 689.855)" fill="#e6f6ff"/>
      <g id="Grupo_140233" data-name="Grupo 140233" transform="translate(8.729 33.483)">
        <path id="Trazado_152638" data-name="Trazado 152638" d="M2090.982-633.535c-1.452,2.952-2.439,8.926-3.827,10.413s-2.186,1.671-3.312,1.615l.893-2.187a4.747,4.747,0,0,1-2.794,2.172c4.779,1.331,6.891,1.954,7.39.149.514-1.863-.272-3.363,1.829-6.716s4.428-7.46,5.688-8.869a5.282,5.282,0,0,0,.458-3.083l-1.2.507S2092.433-636.489,2090.982-633.535Z" transform="translate(-2081.942 640.041)" fill="#c7deeb"/>
        <path id="Trazado_152639" data-name="Trazado 152639" d="M2088.533-601.6a.751.751,0,0,0,.035-.087Z" transform="translate(-2085.738 617.951)" fill="#c7deeb"/>
      </g>
      <path id="Trazado_152640" data-name="Trazado 152640" d="M2158.889-699.592s.046-2.784.19-3.628.26-2.789.786-2.81.492.616.468,1.089-.2,3.48.078,3.495.688-2.815.867-3.4.236-1.847.813-1.76.477.91.366,1.462a35.076,35.076,0,0,0-.69,4.11,18.555,18.555,0,0,0,.9-2.82c.139-.485.358-1.956.9-1.8s.373,1.346.227,1.961-.909,2.934-.723,3.157,1.06-1.78,1.259-2.162.6-.869.891-.74-.062,1.177-.322,1.785a7.856,7.856,0,0,0-.6,2.05,23.967,23.967,0,0,1-.752,2.468,3.991,3.991,0,0,1-.927,1.754c-.375.291-.547.447-.547.447l-.964,1.21-2.57-1.92.506-.457a5.86,5.86,0,0,1-.986-1.666,9.493,9.493,0,0,0-.845-2.337c-.38-.545-.738-1.235-.333-1.443a.911.911,0,0,1,1.079.351C2158.187-700.907,2158.889-699.592,2158.889-699.592Z" transform="translate(-2116.274 711.867)" fill="#ffcda8"/>
      <path id="Trazado_152641" data-name="Trazado 152641" d="M2130.937-680.938s-.247-1.886-2.956-1.23l-1.054.53a5.726,5.726,0,0,0-1.478.412c-.379.243-3.191,2.059-4.164,2.919a17.912,17.912,0,0,1-3.4,2.293c-.99.491-3.952,2.527-4.947,3.122a11.243,11.243,0,0,1-3.561,1.725,5.681,5.681,0,0,0-4.555,2.337c-1.673,2.173-3.07,10.389-1.467,8.947,2.716-2.443,5.367-2.4,7.952-3.58,3.148-1.444,5.156-4.145,6.352-4.906s3.906-2.985,4.757-3.5a49.259,49.259,0,0,0,4.509-3.11,31.24,31.24,0,0,0,2.727-3.538,10.925,10.925,0,0,0,.387-1.132Z" transform="translate(-2085.142 697.87)" fill="#e6f6ff"/>
      <path id="Trazado_152642" data-name="Trazado 152642" d="M2142.18-681.239l-1.477,2.072a3.751,3.751,0,0,0-1.164-.9l.336.375-1.431,1.29,1.67-.8a4.39,4.39,0,0,1-1.069,3.234c-1.326,1.607-8.059,6.374-9.506,7.322a45.81,45.81,0,0,0-6.462,5.8c3.147-1.444,5.156-4.145,6.352-4.906s3.906-2.985,4.756-3.5a49.341,49.341,0,0,0,4.509-3.11,31.248,31.248,0,0,0,2.726-3.538,10.8,10.8,0,0,0,.387-1.132l.9-1.288A1.619,1.619,0,0,0,2142.18-681.239Z" transform="translate(-2096.908 697.255)" fill="#c7deeb"/>
      <path id="Trazado_152643" data-name="Trazado 152643" d="M2096.2-669.431s4.568,1.294,6.24,5.472a19.038,19.038,0,0,1-5.735-2.165c-2.613-1.6-2.012-2.423-2.012-2.423Z" transform="translate(-2080.521 690.453)" fill="#e8f5ff"/>
    </g>
  </g>
  <g id="Grupo_140239" data-name="Grupo 140239" transform="translate(78.362 137.115)">
    <path id="Trazado_152644" data-name="Trazado 152644" d="M1649.64-785.823s-1.565,1.125-1.563,2.242,1.319,2.073,1.476,3.48.236,3,.236,3l.592.024s-.309-4.122.8-3.816,2.979,2.138,4.711,2.184,3.652-2.229,3.505-2.71-1.617-.54-2.418-.739-2.017-.651-2.017-.651,1.079.946.609,1.4-.873.083-1.828-1.095A10.663,10.663,0,0,0,1649.64-785.823Z" transform="translate(-1608.422 862.517)" fill="#001135"/>
    <path id="Trazado_152645" data-name="Trazado 152645" d="M1559.5-764.037a2.232,2.232,0,0,1,1.825,2.473c-.167,1.822-.846,3.933-.695,4.889s.689,1.191.626.975a1.965,1.965,0,0,1-.207-.744c-.05-.524-.047-.62-.047-.62s1.552-.2,1.84.311-.56,2.14-1.495,2.933-1.2.832-1.643.671a12.354,12.354,0,0,1-2.206-1.276,3.711,3.711,0,0,1-1.5-2.316l-1.046,1.81-.41-.443a18.492,18.492,0,0,0,1.75-3.968c.218-1.3.073-2.42.824-3.364A5.005,5.005,0,0,1,1559.5-764.037Z" transform="translate(-1554.545 849.967)" fill="#001135"/>
    <path id="Trazado_152646" data-name="Trazado 152646" d="M1561.689-746.032c-.039-.1-.077-.2-.113-.316-.611-1.948-.581-4.559-.782-4.829s-.846-.794-1.317-.314a11.67,11.67,0,0,0-1.5,1.865,3.712,3.712,0,0,0,1.5,2.316,12.362,12.362,0,0,0,2.206,1.276Z" transform="translate(-1556.522 842.853)" fill="#485255"/>
    <path id="Trazado_152647" data-name="Trazado 152647" d="M1590.651-859.827c.027-1.88-4.451-9.845-5.575-8.274s-2.588,6.766-2.727,7.845-.557,3.065-.94,6.595-1.153,10.13-1.427,10.939-3.907,2.424-5.416,3.979-4.48,8.285-5.561,10.558a18.367,18.367,0,0,1-2.773,4.088,2.232,2.232,0,0,1,1.825,2.472c-.168,1.822-.846,3.933-.7,4.889s.689,1.191.626.975a1.971,1.971,0,0,1-.207-.744c-.05-.524-.047-.62-.047-.62-.387-.42,1.422-3.988,1.946-5.028a61.14,61.14,0,0,1,4.942-7.181c1.415-1.608,6.356-7.559,7.15-8.107a13.216,13.216,0,0,0,3.558-3.33c1.153-1.69,1.907-4.867,2.886-8.205S1590.623-857.947,1590.651-859.827Z" transform="translate(-1561.276 910.028)" fill="#9f9292"/>
    <path id="Trazado_152648" data-name="Trazado 152648" d="M1632.208-840.835c.214,2.234.871,5.78.795,7.678a7.778,7.778,0,0,1-.821,3.218v0a10.853,10.853,0,0,1,4.009,3.289c.955,1.178,1.359,1.551,1.828,1.095.378-.367-.245-1.051-.5-1.3h0a.38.38,0,0,1-.066-.063l-.039-.036.014,0a14.831,14.831,0,0,1-1.047-4.322,42.728,42.728,0,0,1,.933-6.443c.452-2.12,1.883-10.873,2.185-13s-.821-3.791-3.335-5.727a15.7,15.7,0,0,0-5.988-2.551l.047-1.164-11.268-2.309c-.824,1.695-2.674,7.452.251,9.9a9.237,9.237,0,0,0,6.529,1.989c1.559.452,7.809,1.306,7.809,1.306A28.938,28.938,0,0,0,1632.208-840.835Z" transform="translate(-1590.874 906.665)" fill="#9f9292"/>
    <path id="Trazado_152649" data-name="Trazado 152649" d="M1599.709-845.22s4.1,2.125,6.918,1.94,14.988-6.183,17.725-8.995,3.641-4,3.52-5.707a14.327,14.327,0,0,0-8.08-4.357l-15.622-5.646a55.289,55.289,0,0,0-2.335,6.291C1601.082-858.96,1599.709-845.22,1599.709-845.22Z" transform="translate(-1580.561 909.844)" fill="#1058b0"/>
    <path id="Trazado_152650" data-name="Trazado 152650" d="M1705.246-957.481a13.579,13.579,0,0,1-.233-1.695c-.039-.51-.1-2.119-.415-2.132s-.457.667-.425,1.319.069,2.049.08,2.654-.063,2-.281,2.023-.925-1.526-1.336-1.7-1.027-.2-.822.2.969,1.642,1.251,2.142,1.488,2.3,1.488,2.3l-.246.373,2.06,1.361a12.936,12.936,0,0,0,1.212-1.52c.215-.422.462-2.271.625-2.847s.5-2.2.628-2.648.329-1.8.019-1.871-.586,1.266-.694,1.646-.433,1.262-.639,1.161.219-2.293.25-2.78.149-1.4-.158-1.53-.483.725-.577,1.314-.315,2.359-.582,2.36-.159-1.854-.109-2.515.112-1.925-.3-2.012-.528.85-.541,1.409S1705.524-957.457,1705.246-957.481Z" transform="translate(-1639.352 963.932)" fill="#ffcda8"/>
    <path id="Trazado_152651" data-name="Trazado 152651" d="M1684.31-958.981a14.743,14.743,0,0,1,1.827.073,18.016,18.016,0,0,1,2.225.329c.555.177,2.338.3,2.365-.041s-.331-.536-.888-.666-.905-.037-1.106-.489a5.134,5.134,0,0,1-.267-.714,9.533,9.533,0,0,1,1.833-1.518c.688-.323,1.76-1.069,1.523-1.445s-.792.067-1.335.312-1.664.764-1.759.648,1.165-.967,1.657-1.285,1.458-1.279,1.175-1.571-.993.361-1.307.651a20.714,20.714,0,0,1-1.906,1.191s1.446-1.652,1.7-1.97.381-.734.174-.855-.9.668-1.338,1.086-1.271,1.188-1.271,1.188.875-1.471,1.1-1.743.469-.783.248-.905-1.164.925-1.494,1.447-1.08,1.674-1.465,2.136-1.307,1.37-1.307,1.37l-.768.181Z" transform="translate(-1629.069 966.715)" fill="#ffcda8"/>
    <path id="Trazado_152652" data-name="Trazado 152652" d="M1652.452-955.218a8.026,8.026,0,0,1,.68,3.025l-7.48,1.952-16.039,6.846-1.515-.243a6.834,6.834,0,0,1,2.8-3.8c2.193-1.347,6.423-3.333,7.451-4.023a21.206,21.206,0,0,1,7.9-2.892C1649.861-954.843,1652.452-955.218,1652.452-955.218Z" transform="translate(-1596.914 960.092)" fill="#e6f6ff"/>
    <path id="Trazado_152653" data-name="Trazado 152653" d="M1672.872-951.918c-1.872.437-6.343,1.478-7.159,1.656-1.036.226-3.356,1.921-2.946,2.57a1.309,1.309,0,0,0,.534.332l2.293-.979,7.481-1.952A5.262,5.262,0,0,0,1672.872-951.918Z" transform="translate(-1616.856 958.192)" fill="#c7deeb"/>
    <path id="Trazado_152654" data-name="Trazado 152654" d="M1628.486-927.37l3.331,1.758a19.989,19.989,0,0,1,.6,4.265,10.392,10.392,0,0,0,.071,3.747c.282,1.195.785,2.4.177,3.807s-2.761,2.258-2.761,2.258-1.368,2.533-1.871,3.394-1.8,2.323-1.764,3.48-.146,4.314-.219,5.468.048,2.012-1.084,2.1A25.408,25.408,0,0,1,1614-899.923c-3.9-2.3-4.146-3.6-4.146-3.6s-.153-.749,1.986-3.279a13.406,13.406,0,0,0,3.453-6.471c.536-2.4.592-6.529.861-9.107a28.572,28.572,0,0,1,1.432-6.541c.426-.92,5-.737,5-.737Z" transform="translate(-1586.405 945.381)" fill="#e6f6ff"/>
    <path id="Trazado_152655" data-name="Trazado 152655" d="M1644.109-905.42c.333,3.093-3.447,7.491-5.788,11.458-1.324,2.243-1.573,5.292-1.538,7.518a18.751,18.751,0,0,0,3.692.376c1.133-.092,1.01-.951,1.084-2.1s.255-4.31.219-5.468,1.262-2.619,1.764-3.48,1.871-3.394,1.871-3.394,2.154-.851,2.761-2.259.1-2.612-.177-3.807a10.385,10.385,0,0,1-.071-3.747,1.678,1.678,0,0,0,.023-.22,17.212,17.212,0,0,0-1.762.15A5.34,5.34,0,0,0,1644.109-905.42Z" transform="translate(-1601.914 934.36)" fill="#c7deeb"/>
    <g id="Grupo_140238" data-name="Grupo 140238" transform="translate(31.375 3.406)">
      <path id="Trazado_152656" data-name="Trazado 152656" d="M1653.648-953.139a8.638,8.638,0,0,1-.171,2.673c-.177.474-.564.633-.543,1.152a1.974,1.974,0,0,1-.16,1.349,16.851,16.851,0,0,1-1.33,2.108c-.215.414-.411,1.178-.988,1.225s-2.325-.681-2.719-.064a11.349,11.349,0,0,0-.885,3.549c.028.563-2.75.818-4.781-.281s-.839-4.085-.839-4.085a11.237,11.237,0,0,0,2.042-2.456c.445-.982-.02-2.57-.219-3.411a6.149,6.149,0,0,1,1.994-5.063c1.846-1.59,4.32-.724,5.8-.022A5.41,5.41,0,0,1,1653.648-953.139Z" transform="translate(-1635.654 957.909)" fill="#ffcda8"/>
      <path id="Trazado_152657" data-name="Trazado 152657" d="M1652.7-932.9a.358.358,0,0,0,.065-.01c-.673-.693-1.783-2.029-1.635-3.163l-.307-.585-1.7-.316a53.432,53.432,0,0,1-4.342,7.5c1.966.836,4.341.58,4.316.058a11.355,11.355,0,0,1,.884-3.549C1650.376-933.581,1652.123-932.851,1652.7-932.9Z" transform="translate(-1637.899 946.178)" fill="#d9a782"/>
      <path id="Trazado_152658" data-name="Trazado 152658" d="M1636.66-938.3a4.4,4.4,0,0,1-1,.535c1.986.053,3.625-2.774,3.625-2.774a8.9,8.9,0,0,1-1.475,2.473c3.657-2.57,2.744-8.856,3.314-10.138a12.677,12.677,0,0,1,1.151-2.089,3.415,3.415,0,0,0,1.552.561c.8.038.713-.878.913-1.347,0,0,2.138-1.115,2.038-2.636a5.444,5.444,0,0,0-4.311-4.781,5.82,5.82,0,0,0-6.51,2.682c-1.038,1.8-1.2,5.31-2.249,6.19-1.029.865-4.025,1.907-5.159,3.869a13.973,13.973,0,0,1,2.283-.982s-2.215,1.5-2,3.212c0,0,.221-1.349.938-1.756a3.412,3.412,0,0,0,.753,4.459C1632.855-938.792,1634.865-937.668,1636.66-938.3Z" transform="translate(-1628.547 958.681)" fill="#412999"/>
      <path id="Trazado_152659" data-name="Trazado 152659" d="M1642.275-950.294a3.415,3.415,0,0,0,1.552.561c.8.038.713-.878.913-1.347a4.873,4.873,0,0,0,1.818-1.683,4.465,4.465,0,0,1-2.481,1.351,2.4,2.4,0,0,0,1.9-1.673c-.676,1.4-3.2,1.329-4.56,2.23s-1.3,4.1-1.315,4.705a20.436,20.436,0,0,1-.33,2.2,5.114,5.114,0,0,1-.225-3.042c-1.21,2.006.329,3.637-.309,5.451a5.3,5.3,0,0,1-2.455,2.691,5.077,5.077,0,0,0,1.055-1.274c-1.7,1.477-2.721,1-2.721,1a5.66,5.66,0,0,0,2.876-4.307,6.867,6.867,0,0,1-4.189,4.254c-.23-.08-.687-1.063-.687-1.063l.087.778a4.8,4.8,0,0,1-1.249-2.844,5.176,5.176,0,0,1,.7-2.83c-1.473,1.427-.951,4.483-.951,4.483a3.591,3.591,0,0,1-.582-2.514,3.712,3.712,0,0,0-.141,2.106c-1.686-1.881.5-5.082,1.455-5.581a6.727,6.727,0,0,0,1.835-1.717,2.479,2.479,0,0,1-.954.352c1.525-.728,2.34-3.481,2.34-3.481.263,1.592-1.26,4.13-1.26,4.13a7.728,7.728,0,0,0,1.6-2.075c-.06,1.559-2.181,4.418-2.181,4.418,1.713-1.184,2.971-4.815,3.354-6.934s1.166-4.494,3.966-5.355a6.121,6.121,0,0,1,4.328.565,5.673,5.673,0,0,0-3-1.756,5.82,5.82,0,0,0-6.51,2.682c-1.038,1.8-1.2,5.31-2.249,6.19-1.029.865-4.025,1.907-5.159,3.869a13.973,13.973,0,0,1,2.283-.982s-2.215,1.5-2,3.212c0,0,.221-1.349.938-1.756a3.412,3.412,0,0,0,.753,4.459c2.335,2.03,4.345,3.154,6.14,2.521a4.4,4.4,0,0,1-1,.535c1.986.053,3.625-2.774,3.625-2.774a8.9,8.9,0,0,1-1.475,2.473c3.657-2.57,2.744-8.856,3.314-10.138A12.677,12.677,0,0,1,1642.275-950.294Z" transform="translate(-1628.547 958.681)" fill="#281080"/>
      <path id="Trazado_152660" data-name="Trazado 152660" d="M1660.065-939.284a.607.607,0,0,0-.9-.638,1.557,1.557,0,0,0-.549,1.722c.207.572.6,1.087.94.732A4.938,4.938,0,0,0,1660.065-939.284Z" transform="translate(-1645.828 947.926)" fill="#ffcda8"/>
      <g id="Grupo_140236" data-name="Grupo 140236" transform="translate(9.433 1.601)">
        <path id="Trazado_152661" data-name="Trazado 152661" d="M1656.591-954.807a3.176,3.176,0,0,0-1.166-.013,4.343,4.343,0,0,0-1.146.346,5.41,5.41,0,0,0-1.171.734,8.689,8.689,0,0,0-1.71,1.943c-.387.591-.6,1.009-.6,1.007a11.013,11.013,0,0,1,.554-1.054,7.6,7.6,0,0,1,1.673-2,5.03,5.03,0,0,1,1.2-.728,4.134,4.134,0,0,1,1.183-.313A3.027,3.027,0,0,1,1656.591-954.807Z" transform="translate(-1650.797 954.906)" fill="#281080"/>
      </g>
      <g id="Grupo_140237" data-name="Grupo 140237" transform="translate(5.815 3.987)">
        <path id="Trazado_152662" data-name="Trazado 152662" d="M1642.262-937.51a17.706,17.706,0,0,0,1.275-1.6,13.474,13.474,0,0,0,1.095-1.794,7.535,7.535,0,0,0,.452-1.1c.117-.385.21-.8.315-1.2a33.463,33.463,0,0,1,1.319-4.357,6.305,6.305,0,0,1,.7-1.312,1.936,1.936,0,0,1,.383-.41,2.024,2.024,0,0,0-.372.429,6.633,6.633,0,0,0-.656,1.341,41.892,41.892,0,0,0-1.243,4.342c-.1.4-.2.794-.316,1.185a7.184,7.184,0,0,1-.465,1.1,12.7,12.7,0,0,1-1.139,1.789A16.283,16.283,0,0,1,1642.262-937.51Z" transform="translate(-1642.262 949.278)" fill="#281080"/>
      </g>
    </g>
    <path id="Trazado_152663" data-name="Trazado 152663" d="M1674.433-939.493s2-.309,2.5.936c0,0-1.759,3.182-2.44,4.175a12.925,12.925,0,0,1-3.89,3.591c-1.185.462-9.012,2.976-10.1,3.5s-7.762,4.514-8.775,5.086-2.261-1.7-2.223-3.821,4.376-5.874,7.407-6.263,7.017-1.191,8.593-1.594a18.992,18.992,0,0,0,2.764-.938,17.654,17.654,0,0,1,2.837-2.409A20.5,20.5,0,0,0,1674.433-939.493Z" transform="translate(-1609.247 951.054)" fill="#e6f6ff"/>
  </g>
  <g id="Grupo_140249" data-name="Grupo 140249" transform="translate(463.348 47.942)">
    <path id="Trazado_152664" data-name="Trazado 152664" d="M2633.334-1156.165l-2.142.5.986,2.278,2.669-.685Z" transform="translate(-2559.705 1165.015)" fill="#00257d"/>
    <path id="Trazado_152665" data-name="Trazado 152665" d="M2662.763-1142.392l1.065-1.6,2.356.564.567.655-3.127,2.7Z" transform="translate(-2577.89 1158.001)" fill="#00257d"/>
    <path id="Trazado_152666" data-name="Trazado 152666" d="M2633.6-1123.918l3.289-2.839,1.6,3.559-3.284,2.422Z" transform="translate(-2561.089 1148.076)" fill="#00257d"/>
    <path id="Trazado_152667" data-name="Trazado 152667" d="M2568.763-1148.669s-13.884,7.831-15.552,8.673c-3.056,1.542-3.814,7.177.47,7.639s16.207-8.919,17.407-10.548S2568.763-1148.669,2568.763-1148.669Z" transform="translate(-2513.334 1160.697)" fill="#fff"/>
    <path id="Trazado_152668" data-name="Trazado 152668" d="M2568.763-1148.669s-13.884,7.831-15.552,8.673c-3.056,1.542-3.814,7.177.47,7.639s16.207-8.919,17.407-10.548S2568.763-1148.669,2568.763-1148.669Z" transform="translate(-2513.334 1160.697)" opacity="0.3" fill="url(#linear-gradient)" style="mix-blend-mode: multiply;isolation: isolate"/>
    <path id="Trazado_152669" data-name="Trazado 152669" d="M2554.346-1121.662c-.914-.967-1.813-3.472-.4-4.839s9.32-4.048,7.572.555S2554.346-1121.662,2554.346-1121.662Z" transform="translate(-2514.786 1149.096)" fill="#00257d"/>
    <path id="Trazado_152670" data-name="Trazado 152670" d="M2616.431-1156.471s2.3,1.444,1.389,3.143c0,0-8.408,2.917-10,3.242s-4.537-4.356-1.748-4.937S2614.7-1156.3,2616.431-1156.471Z" transform="translate(-2544.569 1165.192)" fill="#fff"/>
    <g id="Grupo_140248" data-name="Grupo 140248" transform="translate(47.331 8.136)">
      <g id="Grupo_140241" data-name="Grupo 140241">
        <g id="Grupo_140240" data-name="Grupo 140240" transform="translate(0 8.866)">
          <path id="Trazado_152671" data-name="Trazado 152671" d="M2580.413-1121.558l2.175-5.683a.34.34,0,0,0-.2-.442.341.341,0,0,0-.442.2l-2.152,5.625Q2580.1-1121.709,2580.413-1121.558Z" transform="translate(-2577.43 1131.62)" fill="#00257d"/>
          <path id="Trazado_152672" data-name="Trazado 152672" d="M2577.937-1125.471l.309.16,2.507-7.74a.174.174,0,0,0-.11-.216.172.172,0,0,0-.216.11Z" transform="translate(-2576.359 1134.829)" fill="#00257d"/>
          <path id="Trazado_152673" data-name="Trazado 152673" d="M2574.8-1128.144l3.937-8.306a.346.346,0,0,0-.163-.456.342.342,0,0,0-.456.163l-3.9,8.224C2574.4-1128.391,2574.6-1128.265,2574.8-1128.144Z" transform="translate(-2574.216 1136.938)" fill="#00257d"/>
        </g>
        <path id="Trazado_152674" data-name="Trazado 152674" d="M2587.864-1124.164a2.658,2.658,0,0,1-2.072,1.221c-.767.007-1.081-.529-.7-1.2a2.662,2.662,0,0,1,2.071-1.221C2587.925-1125.366,2588.242-1124.831,2587.864-1124.164Z" transform="translate(-2580.387 1139.135)" fill="#2e383b"/>
        <path id="Trazado_152675" data-name="Trazado 152675" d="M2594.527-1144.632a5.122,5.122,0,0,0,1.411-2.971c.1-.558.808-.48.922-.9s1.4-4.207-.629-6.717a7.616,7.616,0,0,0-6.639-2.592c1.609,1.312,3.712,3.479,3.12,5.479-.929,3.143-.165,3.574.752,4.093.768.434-.361,3.168-1.921,5.323C2592.727-1142.808,2593.5-1143.309,2594.527-1144.632Z" transform="translate(-2583.073 1157.85)" fill="#fff"/>
        <path id="Trazado_152676" data-name="Trazado 152676" d="M2594.527-1144.632a5.122,5.122,0,0,0,1.411-2.971c.1-.558.808-.48.922-.9s1.4-4.207-.629-6.717a7.616,7.616,0,0,0-6.639-2.592c1.609,1.312,3.712,3.479,3.12,5.479-.929,3.143-.165,3.574.752,4.093.768.434-.361,3.168-1.921,5.323C2592.727-1142.808,2593.5-1143.309,2594.527-1144.632Z" transform="translate(-2583.073 1157.85)" opacity="0.3" fill="url(#linear-gradient-2)" style="mix-blend-mode: multiply;isolation: isolate"/>
        <path id="Trazado_152677" data-name="Trazado 152677" d="M2584.166-1142.187c1.561-2.155,2.689-4.889,1.92-5.323-.917-.519-1.681-.95-.751-4.093.523-1.766-1.056-3.661-2.54-4.985-1.168.052-3.849.43-4.984,2.75-2.348,4.8.193,5.224-.671,7.681,0,0-.72,1.771,2.066,3.547a5.332,5.332,0,0,0,5.637.408A2.881,2.881,0,0,1,2584.166-1142.187Z" transform="translate(-2575.695 1157.122)" fill="#003e96"/>
        <path id="Trazado_152678" data-name="Trazado 152678" d="M2589.656-1136.192a6.077,6.077,0,0,1-6.459-.79l-.262,1.69c3.2,2.4,5.666,1.683,6.525,1.3C2589.895-1135.068,2590.027-1135.933,2589.656-1136.192Z" transform="translate(-2579.238 1145.829)" fill="#2665bd"/>
        <path id="Trazado_152679" data-name="Trazado 152679" d="M2577.845-1142.256a14.784,14.784,0,0,1-1.322-1.871l-.088,2.294,1.169,1.245Z" transform="translate(-2575.494 1149.945)" fill="#2665bd"/>
        <path id="Trazado_152680" data-name="Trazado 152680" d="M2579.727-1126.273a4.869,4.869,0,0,1-1.9-1.954l-.114,1.1s-.365.555,1.831,1.985c1.057.689,2.718,1.247,3.38.693.229-.192.83-.858.83-.858A5.7,5.7,0,0,1,2579.727-1126.273Z" transform="translate(-2576.218 1140.786)" fill="#00257d"/>
        <path id="Trazado_152681" data-name="Trazado 152681" d="M2591.776-1132.528a2.866,2.866,0,0,1-2.232,1.318c-.828.007-1.168-.57-.762-1.29a2.869,2.869,0,0,1,2.234-1.317C2591.841-1133.825,2592.183-1133.248,2591.776-1132.528Z" transform="translate(-2582.507 1144.006)" fill="#fff"/>
      </g>
      <g id="Grupo_140242" data-name="Grupo 140242" transform="translate(8.43 8.888)">
        <path id="Trazado_152682" data-name="Trazado 152682" d="M2594.251-1135.716c-.361.638-.059,1.151.675,1.144a2.541,2.541,0,0,0,1.981-1.168c.361-.639.058-1.151-.675-1.144A2.542,2.542,0,0,0,2594.251-1135.716Z" transform="translate(-2594.099 1136.885)" fill="#5099da" opacity="0.3" style="mix-blend-mode: overlay;isolation: isolate"/>
        <path id="Trazado_152683" data-name="Trazado 152683" d="M2594.994-1135.37c-.28.5-.045.9.525.891a1.985,1.985,0,0,0,1.542-.909c.28-.5.044-.9-.526-.89A1.981,1.981,0,0,0,2594.994-1135.37Z" transform="translate(-2594.546 1136.536)" fill="#5099da" opacity="0.3" style="mix-blend-mode: overlay;isolation: isolate"/>
        <path id="Trazado_152684" data-name="Trazado 152684" d="M2595.336-1135.211c-.243.431-.04.776.456.772a1.715,1.715,0,0,0,1.339-.789c.244-.432.04-.778-.456-.773A1.716,1.716,0,0,0,2595.336-1135.211Z" transform="translate(-2594.752 1136.376)" fill="#5099da" opacity="0.3" style="mix-blend-mode: overlay;isolation: isolate"/>
        <path id="Trazado_152685" data-name="Trazado 152685" d="M2595.671-1135.054c-.208.366-.034.662.387.658a1.462,1.462,0,0,0,1.14-.672c.207-.367.033-.661-.387-.658A1.459,1.459,0,0,0,2595.671-1135.054Z" transform="translate(-2594.954 1136.217)" fill="#5099da" style="mix-blend-mode: overlay;isolation: isolate"/>
        <path id="Trazado_152686" data-name="Trazado 152686" d="M2596.19-1134.811c-.151.267-.023.482.284.479a1.065,1.065,0,0,0,.831-.489c.151-.268.024-.483-.284-.48A1.066,1.066,0,0,0,2596.19-1134.811Z" transform="translate(-2595.267 1135.973)" fill="#5099da" style="mix-blend-mode: overlay;isolation: isolate"/>
        <path id="Trazado_152687" data-name="Trazado 152687" d="M2596.593-1134.623c-.107.191-.016.344.2.341a.756.756,0,0,0,.594-.348c.108-.191.017-.344-.2-.343A.761.761,0,0,0,2596.593-1134.623Z" transform="translate(-2595.51 1135.784)" fill="#5099da" style="mix-blend-mode: overlay;isolation: isolate"/>
      </g>
      <g id="Grupo_140243" data-name="Grupo 140243" transform="translate(7.602 8.482)">
        <path id="Trazado_152688" data-name="Trazado 152688" d="M2592.234-1137.178c-.2.363-.034.655.384.651a1.443,1.443,0,0,0,1.128-.665c.207-.363.034-.655-.383-.652A1.449,1.449,0,0,0,2592.234-1137.178Z" transform="translate(-2592.147 1137.844)" fill="#5099da" opacity="0.3" style="mix-blend-mode: overlay;isolation: isolate"/>
        <path id="Trazado_152689" data-name="Trazado 152689" d="M2592.656-1136.98c-.16.283-.026.51.3.507a1.126,1.126,0,0,0,.877-.518c.16-.283.026-.51-.3-.506A1.123,1.123,0,0,0,2592.656-1136.98Z" transform="translate(-2592.401 1137.644)" fill="#5099da" opacity="0.3" style="mix-blend-mode: overlay;isolation: isolate"/>
        <path id="Trazado_152690" data-name="Trazado 152690" d="M2592.851-1136.89c-.139.245-.024.443.259.44a.977.977,0,0,0,.762-.449c.139-.247.023-.443-.259-.441A.978.978,0,0,0,2592.851-1136.89Z" transform="translate(-2592.519 1137.554)" fill="#5099da" opacity="0.3" style="mix-blend-mode: overlay;isolation: isolate"/>
        <path id="Trazado_152691" data-name="Trazado 152691" d="M2593.042-1136.8c-.118.209-.02.376.221.374a.829.829,0,0,0,.649-.382c.119-.209.019-.376-.22-.375A.833.833,0,0,0,2593.042-1136.8Z" transform="translate(-2592.634 1137.464)" fill="#5099da" style="mix-blend-mode: overlay;isolation: isolate"/>
        <path id="Trazado_152692" data-name="Trazado 152692" d="M2593.339-1136.662c-.086.152-.015.275.161.274a.609.609,0,0,0,.473-.279c.086-.153.013-.275-.162-.273A.6.6,0,0,0,2593.339-1136.662Z" transform="translate(-2592.812 1137.324)" fill="#5099da" style="mix-blend-mode: overlay;isolation: isolate"/>
        <path id="Trazado_152693" data-name="Trazado 152693" d="M2593.566-1136.556c-.063.109-.009.2.115.2a.436.436,0,0,0,.338-.2c.061-.109.01-.2-.116-.2A.434.434,0,0,0,2593.566-1136.556Z" transform="translate(-2592.949 1137.217)" fill="#5099da" style="mix-blend-mode: overlay;isolation: isolate"/>
      </g>
      <g id="Grupo_140244" data-name="Grupo 140244" transform="translate(8.926 12.291)">
        <path id="Trazado_152694" data-name="Trazado 152694" d="M2595.313-1128.527c-.1.182-.019.328.192.327a.725.725,0,0,0,.564-.333c.1-.182.017-.329-.192-.327A.723.723,0,0,0,2595.313-1128.527Z" transform="translate(-2595.268 1128.86)" fill="#5099da" opacity="0.3" style="mix-blend-mode: overlay;isolation: isolate"/>
        <path id="Trazado_152695" data-name="Trazado 152695" d="M2595.522-1128.427c-.08.141-.013.255.151.253a.558.558,0,0,0,.438-.259c.081-.141.014-.256-.15-.254A.566.566,0,0,0,2595.522-1128.427Z" transform="translate(-2595.395 1128.76)" fill="#5099da" opacity="0.3" style="mix-blend-mode: overlay;isolation: isolate"/>
        <path id="Trazado_152696" data-name="Trazado 152696" d="M2595.622-1128.382c-.07.123-.011.221.129.22a.491.491,0,0,0,.381-.225c.069-.124.011-.223-.13-.22A.486.486,0,0,0,2595.622-1128.382Z" transform="translate(-2595.455 1128.714)" fill="#5099da" opacity="0.3" style="mix-blend-mode: overlay;isolation: isolate"/>
        <path id="Trazado_152697" data-name="Trazado 152697" d="M2595.715-1128.338c-.058.1-.009.188.111.187a.411.411,0,0,0,.325-.191c.059-.1.01-.189-.11-.188A.419.419,0,0,0,2595.715-1128.338Z" transform="translate(-2595.512 1128.67)" fill="#5099da" style="mix-blend-mode: overlay;isolation: isolate"/>
        <path id="Trazado_152698" data-name="Trazado 152698" d="M2595.863-1128.268c-.042.076-.007.137.081.136a.3.3,0,0,0,.237-.139c.043-.077.007-.138-.081-.137A.306.306,0,0,0,2595.863-1128.268Z" transform="translate(-2595.601 1128.6)" fill="#5099da" style="mix-blend-mode: overlay;isolation: isolate"/>
        <path id="Trazado_152699" data-name="Trazado 152699" d="M2595.979-1128.215c-.031.054,0,.1.057.1a.219.219,0,0,0,.17-.1c.031-.055,0-.1-.057-.1A.217.217,0,0,0,2595.979-1128.215Z" transform="translate(-2595.669 1128.546)" fill="#5099da" style="mix-blend-mode: overlay;isolation: isolate"/>
      </g>
      <g id="Grupo_140245" data-name="Grupo 140245" transform="translate(7.995 12.978)">
        <path id="Trazado_152700" data-name="Trazado 152700" d="M2593.118-1126.905c-.1.182-.017.328.191.326a.725.725,0,0,0,.565-.333c.1-.183.016-.329-.193-.327A.722.722,0,0,0,2593.118-1126.905Z" transform="translate(-2593.074 1127.239)" fill="#5099da" opacity="0.3" style="mix-blend-mode: overlay;isolation: isolate"/>
        <path id="Trazado_152701" data-name="Trazado 152701" d="M2593.326-1126.806c-.079.142-.012.255.149.254a.562.562,0,0,0,.441-.259c.081-.142.013-.255-.15-.253A.568.568,0,0,0,2593.326-1126.806Z" transform="translate(-2593.2 1127.139)" fill="#5099da" opacity="0.3" style="mix-blend-mode: overlay;isolation: isolate"/>
        <path id="Trazado_152702" data-name="Trazado 152702" d="M2593.426-1126.761c-.069.122-.012.221.129.22a.489.489,0,0,0,.383-.225c.069-.123.011-.222-.13-.221A.492.492,0,0,0,2593.426-1126.761Z" transform="translate(-2593.26 1127.094)" fill="#5099da" opacity="0.3" style="mix-blend-mode: overlay;isolation: isolate"/>
        <path id="Trazado_152703" data-name="Trazado 152703" d="M2593.522-1126.716c-.06.1-.009.189.11.187a.411.411,0,0,0,.324-.191c.059-.105.011-.189-.109-.188A.416.416,0,0,0,2593.522-1126.716Z" transform="translate(-2593.317 1127.048)" fill="#5099da" style="mix-blend-mode: overlay;isolation: isolate"/>
        <path id="Trazado_152704" data-name="Trazado 152704" d="M2593.668-1126.646c-.043.076-.007.137.081.137a.306.306,0,0,0,.237-.14c.043-.076.007-.137-.081-.136A.3.3,0,0,0,2593.668-1126.646Z" transform="translate(-2593.406 1126.978)" fill="#5099da" style="mix-blend-mode: overlay;isolation: isolate"/>
        <path id="Trazado_152705" data-name="Trazado 152705" d="M2593.784-1126.593c-.031.055,0,.1.057.1a.217.217,0,0,0,.17-.1c.031-.054,0-.1-.058-.1A.216.216,0,0,0,2593.784-1126.593Z" transform="translate(-2593.475 1126.925)" fill="#5099da" style="mix-blend-mode: overlay;isolation: isolate"/>
      </g>
      <g id="Grupo_140246" data-name="Grupo 140246" transform="translate(6.916 7.894)">
        <path id="Trazado_152706" data-name="Trazado 152706" d="M2590.571-1138.9c-.1.183-.016.328.192.326a.727.727,0,0,0,.565-.333c.1-.182.017-.328-.192-.326A.725.725,0,0,0,2590.571-1138.9Z" transform="translate(-2590.528 1139.23)" fill="#5099da" opacity="0.3" style="mix-blend-mode: overlay;isolation: isolate"/>
        <path id="Trazado_152707" data-name="Trazado 152707" d="M2590.782-1138.8c-.081.141-.014.255.149.254a.563.563,0,0,0,.439-.259c.082-.141.013-.255-.149-.254A.565.565,0,0,0,2590.782-1138.8Z" transform="translate(-2590.655 1139.13)" fill="#5099da" opacity="0.3" style="mix-blend-mode: overlay;isolation: isolate"/>
        <path id="Trazado_152708" data-name="Trazado 152708" d="M2590.879-1138.752c-.07.123-.012.222.13.22a.488.488,0,0,0,.381-.225c.07-.123.011-.221-.129-.22A.491.491,0,0,0,2590.879-1138.752Z" transform="translate(-2590.713 1139.084)" fill="#5099da" opacity="0.3" style="mix-blend-mode: overlay;isolation: isolate"/>
        <path id="Trazado_152709" data-name="Trazado 152709" d="M2590.975-1138.707c-.06.1-.01.189.111.188a.421.421,0,0,0,.325-.191c.059-.1.009-.189-.112-.187A.416.416,0,0,0,2590.975-1138.707Z" transform="translate(-2590.771 1139.039)" fill="#5099da" style="mix-blend-mode: overlay;isolation: isolate"/>
        <path id="Trazado_152710" data-name="Trazado 152710" d="M2591.124-1138.638c-.042.076-.007.138.08.137a.3.3,0,0,0,.237-.14c.043-.076.007-.138-.08-.137A.3.3,0,0,0,2591.124-1138.638Z" transform="translate(-2590.861 1138.97)" fill="#5099da" style="mix-blend-mode: overlay;isolation: isolate"/>
        <path id="Trazado_152711" data-name="Trazado 152711" d="M2591.238-1138.585c-.031.055,0,.1.058.1a.219.219,0,0,0,.169-.1c.03-.055,0-.1-.058-.1A.217.217,0,0,0,2591.238-1138.585Z" transform="translate(-2590.929 1138.916)" fill="#5099da" style="mix-blend-mode: overlay;isolation: isolate"/>
      </g>
      <g id="Grupo_140247" data-name="Grupo 140247" transform="translate(6.135 8.663)">
        <path id="Trazado_152712" data-name="Trazado 152712" d="M2588.752-1136.893c-.16.286-.025.516.3.512a1.134,1.134,0,0,0,.886-.522c.162-.286.027-.516-.3-.512A1.142,1.142,0,0,0,2588.752-1136.893Z" transform="translate(-2588.685 1137.416)" fill="#5099da" opacity="0.3" style="mix-blend-mode: overlay;isolation: isolate"/>
        <path id="Trazado_152713" data-name="Trazado 152713" d="M2589.083-1136.738c-.125.222-.02.4.236.4a.884.884,0,0,0,.69-.407c.125-.223.02-.4-.234-.4A.883.883,0,0,0,2589.083-1136.738Z" transform="translate(-2588.884 1137.26)" fill="#5099da" opacity="0.3" style="mix-blend-mode: overlay;isolation: isolate"/>
        <path id="Trazado_152714" data-name="Trazado 152714" d="M2589.237-1136.668c-.109.193-.017.348.206.346a.769.769,0,0,0,.6-.353c.109-.193.018-.348-.2-.346A.77.77,0,0,0,2589.237-1136.668Z" transform="translate(-2588.977 1137.188)" fill="#5099da" opacity="0.3" style="mix-blend-mode: overlay;isolation: isolate"/>
        <path id="Trazado_152715" data-name="Trazado 152715" d="M2589.388-1136.6c-.092.164-.014.3.174.295a.659.659,0,0,0,.51-.3c.094-.164.015-.3-.173-.294A.656.656,0,0,0,2589.388-1136.6Z" transform="translate(-2589.068 1137.118)" fill="#5099da" style="mix-blend-mode: overlay;isolation: isolate"/>
        <path id="Trazado_152716" data-name="Trazado 152716" d="M2589.621-1136.488c-.068.12-.011.215.126.214a.474.474,0,0,0,.371-.219c.07-.121.011-.216-.126-.215A.477.477,0,0,0,2589.621-1136.488Z" transform="translate(-2589.207 1137.008)" fill="#5099da" style="mix-blend-mode: overlay;isolation: isolate"/>
        <path id="Trazado_152717" data-name="Trazado 152717" d="M2589.8-1136.4c-.049.085-.008.155.089.154a.338.338,0,0,0,.265-.157c.048-.086.009-.154-.09-.153A.341.341,0,0,0,2589.8-1136.4Z" transform="translate(-2589.316 1136.923)" fill="#5099da" style="mix-blend-mode: overlay;isolation: isolate"/>
      </g>
    </g>
    <path id="Trazado_152718" data-name="Trazado 152718" d="M2535.589-1066.3s2.231-7.669,2.884-10.625,14.893,3.171,14.893,3.171l-3.352,4.185-1.53.464.833.964-1.758,1.516-1.8,3.808Z" transform="translate(-2504.635 1119.839)" fill="#00257d"/>
    <path id="Trazado_152719" data-name="Trazado 152719" d="M2551.318-1126.82s1.86,5.3,9.819,4.651c0,0,5.625,2.587,2.108,9.86-1.517,3.135-6.068,8.783-6.068,8.783s-3.122,3.8-6.361,3.866c-4.583.1-12.494-5.113-12.494-5.113s1.84-11.373,4.864-15.687S2548.848-1126.377,2551.318-1126.82Z" transform="translate(-2506.21 1148.112)" fill="#fff"/>
    <path id="Trazado_152720" data-name="Trazado 152720" d="M2566.389-1118.115a10.741,10.741,0,0,1-7.364-1.667c-2.87,2.4-8.363,8.451-11.586,21.316,2.655,1.394,6.135,2.915,8.629,2.861,3.239-.069,6.361-3.866,6.361-3.866s4.551-5.647,6.068-8.783C2572.014-1115.529,2566.389-1118.115,2566.389-1118.115Z" transform="translate(-2511.461 1144.058)" fill="#438be3" opacity="0.2" style="mix-blend-mode: multiply;isolation: isolate"/>
    <path id="Trazado_152721" data-name="Trazado 152721" d="M2465.437-941.236a13.714,13.714,0,0,0-2.648-.722,8.964,8.964,0,0,0-.086,3.572c.238,1.525-.029,4.243.94,5.821s3.294,3.6,4.2,3.408.163-7.334.163-7.334Z" transform="translate(-2462.581 1041.636)" fill="#00257d"/>
    <path id="Trazado_152722" data-name="Trazado 152722" d="M2468.794-933.446a13.507,13.507,0,0,1-1.818-2.766,12.747,12.747,0,0,1-.49-4.5,13.184,13.184,0,0,0-1.668-3.562,9.161,9.161,0,0,0-1.746-1.552s1.83-1.514,2.423-1.471l2.281.167,2.135-1.562,1.876,3.12a14.411,14.411,0,0,0-1.671,2.2c-.911,1.433-1.9,6.272-1.229,7.2S2468.794-933.446,2468.794-933.446Z" transform="translate(-2462.864 1045.507)" fill="#00257d"/>
    <path id="Trazado_152723" data-name="Trazado 152723" d="M2587.927-964.236l-1.144-1.608s-2.21.137-2.94-1.436l-3.437.969-.455,2.435a2.217,2.217,0,0,0-.673,1.368c-.094.878-.732,3.627.568,3.831s3.651-1.235,5.789-1.973S2587.927-964.236,2587.927-964.236Z" transform="translate(-2529.664 1056.213)" fill="#00257d"/>
    <path id="Trazado_152724" data-name="Trazado 152724" d="M2585.478-1020.763l-4.893,3.107-.308,4.2,5.438-2.669S2585.63-1020.4,2585.478-1020.763Z" transform="translate(-2530.377 1087.02)" fill="#00257d"/>
    <path id="Trazado_152725" data-name="Trazado 152725" d="M2513.286-993.143a14.73,14.73,0,0,1-2.925,2.941c-1.11.585,2.1,5.308,2.1,5.308s4.539-2.5,5.656-5.621Z" transform="translate(-2489.969 1071.111)" fill="#00257d"/>
    <path id="Trazado_152726" data-name="Trazado 152726" d="M2514.689-1030.829s5.707,3.966,6.886,3.345,7.125-15.381,8.3-18.693-2.819-12.472-6.847-12.967-4.4,3.644-5.907,10.549A176.667,176.667,0,0,0,2514.689-1030.829Z" transform="translate(-2492.596 1109.151)" fill="#fff"/>
    <path id="Trazado_152727" data-name="Trazado 152727" d="M2514.689-1030.829s5.707,3.966,6.886,3.345,7.125-15.381,8.3-18.693-2.819-12.472-6.847-12.967-4.4,3.644-5.907,10.549A176.667,176.667,0,0,0,2514.689-1030.829Z" transform="translate(-2492.596 1109.151)" opacity="0.3" fill="url(#linear-gradient-3)" style="mix-blend-mode: multiply;isolation: isolate"/>
    <path id="Trazado_152728" data-name="Trazado 152728" d="M2529.016-1047.471s-4.363,14.785-6.852,20.529c1.527.876,3.148,1.643,3.717,1.343,1.177-.619,7.126-15.381,8.3-18.692.927-2.613-1.356-8.85-4.338-11.62l-1.03.094Z" transform="translate(-2496.902 1107.267)" fill="#438be3" opacity="0.2" style="mix-blend-mode: multiply;isolation: isolate"/>
    <path id="Trazado_152729" data-name="Trazado 152729" d="M2530.359-1054.061c-.409,4.113,1.985,9.857,7.516,11.3.446-1.141.8-2.071,1-2.65,1.036-2.917-1.937-10.364-5.412-12.44l-.681.449S2530.79-1058.393,2530.359-1054.061Z" transform="translate(-2501.597 1108.382)" fill="#00257d"/>
    <path id="Trazado_152730" data-name="Trazado 152730" d="M2472.843-936.706a2.943,2.943,0,0,1-1.494,2.2c-.763.369-1.332-.016-1.269-.861a2.942,2.942,0,0,1,1.492-2.2C2472.336-937.94,2472.9-937.553,2472.843-936.706Z" transform="translate(-2466.898 1039.18)" fill="#fff"/>
    <path id="Trazado_152731" data-name="Trazado 152731" d="M2494.59-982.838s-3.958-5.72-5.811-5.593-5.31,2.377-7.211,5.858-7.238,11.617-7.238,11.617,2.021,5.644,3.085,4.6S2487.625-978.542,2494.59-982.838Z" transform="translate(-2469.349 1068.397)" fill="#fff"/>
    <path id="Trazado_152732" data-name="Trazado 152732" d="M2494.59-982.838s-3.958-5.72-5.811-5.593-5.31,2.377-7.211,5.858-7.238,11.617-7.238,11.617,2.021,5.644,3.085,4.6S2487.625-978.542,2494.59-982.838Z" transform="translate(-2469.349 1068.397)" opacity="0.3" fill="url(#linear-gradient-4)" style="mix-blend-mode: multiply;isolation: isolate"/>
    <path id="Trazado_152733" data-name="Trazado 152733" d="M2583.652-1016.525s-2.356,2.96-4.347,3.747a2.955,2.955,0,0,1-3.24-.571,12.626,12.626,0,0,0-1.255,8.237c1.025,4.21,1.868,6.336,2.007,8.081s.774,3.988,2.043,3.948,3.294-1.29,3.292-3.09S2582.874-1013.183,2583.652-1016.525Z" transform="translate(-2527.075 1084.579)" fill="#fff"/>
    <path id="Trazado_152734" data-name="Trazado 152734" d="M2590.577-965.982s1.89,2.4,1.111,3.947-4.454,3.473-4.454,3.473a75.3,75.3,0,0,0,7.736-1.9c2.058-.783,4.213-3.826,3.032-4.977S2591.933-965.882,2590.577-965.982Z" transform="translate(-2534.384 1055.537)" fill="#fff"/>
    <path id="Trazado_152735" data-name="Trazado 152735" d="M2473.563-927.45s-1.054,1.656-1.484,1.156-1.326-4.642-1.326-4.642-.715,7.959,1.737,8.138,2.958-1.25,2.627-2.206S2473.471-926.191,2473.563-927.45Z" transform="translate(-2467.232 1035.278)" fill="#fff"/>
    <path id="Trazado_152736" data-name="Trazado 152736" d="M2590.577-965.982s1.89,2.4,1.111,3.947-4.454,3.473-4.454,3.473a75.3,75.3,0,0,0,7.736-1.9c2.058-.783,4.213-3.826,3.032-4.977S2591.933-965.882,2590.577-965.982Z" transform="translate(-2534.384 1055.537)" opacity="0.3" fill="url(#linear-gradient-5)" style="mix-blend-mode: multiply;isolation: isolate"/>
    <path id="Trazado_152737" data-name="Trazado 152737" d="M2473.563-927.45s-1.054,1.656-1.484,1.156-1.326-4.642-1.326-4.642-.715,7.959,1.737,8.138,2.958-1.25,2.627-2.206S2473.471-926.191,2473.563-927.45Z" transform="translate(-2467.232 1035.278)" opacity="0.3" fill="url(#linear-gradient-6)" style="mix-blend-mode: multiply;isolation: isolate"/>
    <path id="Trazado_152738" data-name="Trazado 152738" d="M2533.49-1062.9s-3.233,14.091,6.324,16.3c.08.019.155.036.231.055l8.608-11.131A40.7,40.7,0,0,1,2533.49-1062.9Z" transform="translate(-2503.123 1111.292)" fill="#fff"/>
    <path id="Trazado_152739" data-name="Trazado 152739" d="M2533.49-1062.9s-3.233,14.091,6.324,16.3c.08.019.155.036.231.055l8.608-11.131A40.7,40.7,0,0,1,2533.49-1062.9Z" transform="translate(-2503.123 1111.292)" opacity="0.3" fill="url(#linear-gradient-7)" style="mix-blend-mode: multiply;isolation: isolate"/>
    <path id="Trazado_152740" data-name="Trazado 152740" d="M2648.977-1141.515s3.039,1.4,2.262,2.619-7.8,7.759-8.842,8.518-2.232-.008-2.808-2.209-1.093-3.171.753-4.262S2648.977-1141.515,2648.977-1141.515Z" transform="translate(-2564.234 1156.577)" fill="#fff"/>
    <path id="Trazado_152741" data-name="Trazado 152741" d="M2578.861-988.767a3.352,3.352,0,0,0,1.406-.414c-1.812-6.878-.981-15.23-.326-19.6a4.75,4.75,0,0,1-.635.315,2.955,2.955,0,0,1-3.24-.571,12.627,12.627,0,0,0-1.255,8.237c1.025,4.21,1.868,6.336,2.007,8.081S2577.591-988.727,2578.861-988.767Z" transform="translate(-2527.075 1080.263)" fill="#438be3" opacity="0.2" style="mix-blend-mode: multiply;isolation: isolate"/>
    <path id="Trazado_152742" data-name="Trazado 152742" d="M2477.5-963.717c.594,1.108,1.263,1.986,1.74,1.519,1.065-1.04,10.209-12.188,17.174-16.484,0,0-.851-1.229-1.949-2.535C2491.028-978.4,2481.728-970.48,2477.5-963.717Z" transform="translate(-2471.177 1064.241)" fill="#438be3" opacity="0.2" style="mix-blend-mode: multiply;isolation: isolate"/>
    <path id="Trazado_152743" data-name="Trazado 152743" d="M2546.885-1051.058c-3.448.224-7.086,5.432-4.009,10.553a8.713,8.713,0,0,0,1.979.7c.08.019.155.036.231.055l7.951-10.283A13.473,13.473,0,0,0,2546.885-1051.058Z" transform="translate(-2508.165 1104.487)" fill="#00257d"/>
    <path id="Trazado_152744" data-name="Trazado 152744" d="M2558.709-1033.788c1.263.093,6.349-1.135,6.534-3.653s-.664-4.579-3.526-6.458-7.672-5.361-11.156-6.016a6.309,6.309,0,0,0-6.669,8.243C2545.583-1036.548,2555.13-1034.05,2558.709-1033.788Z" transform="translate(-2509.219 1103.855)" fill="#fff"/>
    <path id="Trazado_152745" data-name="Trazado 152745" d="M2583.652-1016.525s-2.356,2.96-4.347,3.747a2.955,2.955,0,0,1-3.24-.571,12.626,12.626,0,0,0-1.255,8.237c1.025,4.21,1.868,6.336,2.007,8.081s.774,3.988,2.043,3.948,3.294-1.29,3.292-3.09S2582.874-1013.183,2583.652-1016.525Z" transform="translate(-2527.075 1084.579)" opacity="0.3" fill="url(#linear-gradient-8)" style="mix-blend-mode: multiply;isolation: isolate"/>
    <path id="Trazado_152746" data-name="Trazado 152746" d="M2558.709-1033.788c1.263.093,6.349-1.135,6.534-3.653s-.664-4.579-3.526-6.458-7.672-5.361-11.156-6.016a6.309,6.309,0,0,0-6.669,8.243C2545.583-1036.548,2555.13-1034.05,2558.709-1033.788Z" transform="translate(-2509.219 1103.855)" opacity="0.3" fill="url(#linear-gradient-9)" style="mix-blend-mode: multiply;isolation: isolate"/>
    <path id="Trazado_152747" data-name="Trazado 152747" d="M2558.711-1027.091a10.386,10.386,0,0,0,5.313-1.763c-10.355-.951-17.9-7.235-20.325-9.509a6.238,6.238,0,0,0,.2,3.388C2545.585-1029.852,2555.132-1027.354,2558.711-1027.091Z" transform="translate(-2509.221 1097.158)" fill="#438be3" opacity="0.2" style="mix-blend-mode: multiply;isolation: isolate"/>
    <path id="Trazado_152748" data-name="Trazado 152748" d="M2558.714-1038c-.73,1.409-2.171,2.108-3.217,1.566s-1.3-2.126-.567-3.532,2.171-2.109,3.216-1.566S2559.447-1039.411,2558.714-1038Z" transform="translate(-2515.535 1099.092)" fill="#003e96"/>
    <path id="Trazado_152749" data-name="Trazado 152749" d="M2559.069-1041.138a2.816,2.816,0,0,1,.186,3.251c-.732,1.409-2.172,2.11-3.218,1.566-.036-.018-.069-.042-.1-.062a1.7,1.7,0,0,0,.383.281c1.045.542,2.486-.157,3.216-1.566C2560.24-1039.027,2560.025-1040.544,2559.069-1041.138Z" transform="translate(-2516.354 1098.757)" fill="#fff"/>
    <path id="Trazado_152750" data-name="Trazado 152750" d="M2588.368-955a2.94,2.94,0,0,1-1.494,2.2c-.763.371-1.331-.018-1.269-.863a2.939,2.939,0,0,1,1.494-2.2C2587.862-956.23,2588.43-955.844,2588.368-955Z" transform="translate(-2533.443 1049.716)" fill="#fff"/>
    <path id="Trazado_152751" data-name="Trazado 152751" d="M2584.528-1113.161c-1.107.125-3.438,1.658-4.385,7.043s3.642,6.359,6.265,2.609S2587.3-1113.476,2584.528-1113.161Z" transform="translate(-2530.226 1140.25)" fill="#00257d"/>
    <path id="Trazado_152752" data-name="Trazado 152752" d="M2606.5-1123.822s3.165,4.207,1.931,5.637-13.6,6.068-16.881,7.4-5.395-1.74-5.184-4.767,2.522-4.439,7.45-5.411S2606.5-1123.822,2606.5-1123.822Z" transform="translate(-2533.875 1146.385)" fill="#fff"/>
    <path id="Trazado_152753" data-name="Trazado 152753" d="M2648.977-1141.515s3.039,1.4,2.262,2.619-7.8,7.759-8.842,8.518-2.232-.008-2.808-2.209-1.093-3.171.753-4.262S2648.977-1141.515,2648.977-1141.515Z" transform="translate(-2564.234 1156.577)" opacity="0.3" fill="url(#linear-gradient-10)" style="mix-blend-mode: multiply;isolation: isolate"/>
    <path id="Trazado_152754" data-name="Trazado 152754" d="M2606.5-1123.822s3.165,4.207,1.931,5.637-13.6,6.068-16.881,7.4-5.395-1.74-5.184-4.767,2.522-4.439,7.45-5.411S2606.5-1123.822,2606.5-1123.822Z" transform="translate(-2533.875 1146.385)" opacity="0.3" fill="url(#linear-gradient-11)" style="mix-blend-mode: multiply;isolation: isolate"/>
    <path id="Trazado_152755" data-name="Trazado 152755" d="M2643.457-1168.035a5.993,5.993,0,0,0-2.545.191,1.058,1.058,0,0,1-1.158-.463c-.136-.177-.027-.663.351-1.165s2.2-1.879,2.767-2.442,1.145-1.428.717-1.781-1.727.875-2.255,1.366-1.958,1.462-2.042,1.324,2.431-3.261,2.875-3.909.407-1.179,0-1.359-1.538,1.4-2.058,2.041-2.165,2.222-2.165,2.222,1.635-2.715,2.078-3.362.487-1.476.233-1.626-.558.129-1.034.775-2.244,3.217-2.244,3.217.528-2.322.709-2.97.068-.94-.134-1.012-.5.681-.819,1.358-.97,2.687-1.472,3.595a24.053,24.053,0,0,0-1.2,3.408l2.186,2.954c.058-.013.818-.108,1.446-.156a17.056,17.056,0,0,0,2.293-.115c.56-.148,1.648-.559,2.4-.731s1.5-.079,1.708-.348S2643.972-1167.827,2643.457-1168.035Z" transform="translate(-2561.363 1177.039)" fill="#fff"/>
    <path id="Trazado_152756" data-name="Trazado 152756" d="M2664.23-1158.074a4.608,4.608,0,0,0,1.11-2,27.838,27.838,0,0,0,.927-2.822,9.039,9.039,0,0,1,.739-2.346c.314-.695.743-1.891.415-2.048s-.8.4-1.044.831-1.3,2.72-1.5,2.459.724-2.914.907-3.617.407-2.078-.212-2.265-.9,1.5-1.076,2.057a21.406,21.406,0,0,1-1.107,3.225,40.4,40.4,0,0,1,.895-4.715c.139-.632.275-1.577-.387-1.691s-.759,1.343-.977,2.006-.76,3.913-1.08,3.89-.047-3.48-.007-4.026.093-1.278-.512-1.266-.788,2.248-.972,3.217c-.854,4.467-.18.829-.306,4.172,0,0-.777-1.531-1.035-1.871a1.049,1.049,0,0,0-1.234-.43c-.47.23-.076,1.034.349,1.67a10.967,10.967,0,0,1,.916,2.712,6.754,6.754,0,0,0,1.1,1.942,9.83,9.83,0,0,0,1.857.657C2662.765-1158.184,2664.23-1158.074,2664.23-1158.074Z" transform="translate(-2574.892 1173.567)" fill="#fff"/>
    <path id="Trazado_152757" data-name="Trazado 152757" d="M2616.431-1156.471s2.3,1.444,1.389,3.143c0,0-8.408,2.917-10,3.242s-4.537-4.356-1.748-4.937S2614.7-1156.3,2616.431-1156.471Z" transform="translate(-2544.569 1165.192)" opacity="0.3" fill="url(#linear-gradient-12)" style="mix-blend-mode: multiply;isolation: isolate"/>
    <path id="Trazado_152758" data-name="Trazado 152758" d="M2643.457-1168.035a5.993,5.993,0,0,0-2.545.191,1.058,1.058,0,0,1-1.158-.463c-.136-.177-.027-.663.351-1.165s2.2-1.879,2.767-2.442,1.145-1.428.717-1.781-1.727.875-2.255,1.366-1.958,1.462-2.042,1.324,2.431-3.261,2.875-3.909.407-1.179,0-1.359-1.538,1.4-2.058,2.041-2.165,2.222-2.165,2.222,1.635-2.715,2.078-3.362.487-1.476.233-1.626-.558.129-1.034.775-2.244,3.217-2.244,3.217.528-2.322.709-2.97.068-.94-.134-1.012-.5.681-.819,1.358-.97,2.687-1.472,3.595a24.053,24.053,0,0,0-1.2,3.408l2.186,2.954c.058-.013.818-.108,1.446-.156a17.056,17.056,0,0,0,2.293-.115c.56-.148,1.648-.559,2.4-.731s1.5-.079,1.708-.348S2643.972-1167.827,2643.457-1168.035Z" transform="translate(-2561.363 1177.039)" opacity="0.3" fill="url(#linear-gradient-13)" style="mix-blend-mode: multiply;isolation: isolate"/>
    <path id="Trazado_152759" data-name="Trazado 152759" d="M2664.23-1158.074a4.608,4.608,0,0,0,1.11-2,27.838,27.838,0,0,0,.927-2.822,9.039,9.039,0,0,1,.739-2.346c.314-.695.743-1.891.415-2.048s-.8.4-1.044.831-1.3,2.72-1.5,2.459.724-2.914.907-3.617.407-2.078-.212-2.265-.9,1.5-1.076,2.057a21.406,21.406,0,0,1-1.107,3.225,40.4,40.4,0,0,1,.895-4.715c.139-.632.275-1.577-.387-1.691s-.759,1.343-.977,2.006-.76,3.913-1.08,3.89-.047-3.48-.007-4.026.093-1.278-.512-1.266-.788,2.248-.972,3.217c-.854,4.467-.18.829-.306,4.172,0,0-.777-1.531-1.035-1.871a1.049,1.049,0,0,0-1.234-.43c-.47.23-.076,1.034.349,1.67a10.967,10.967,0,0,1,.916,2.712,6.754,6.754,0,0,0,1.1,1.942,9.83,9.83,0,0,0,1.857.657C2662.765-1158.184,2664.23-1158.074,2664.23-1158.074Z" transform="translate(-2574.892 1173.567)" opacity="0.3" fill="url(#linear-gradient-14)" style="mix-blend-mode: multiply;isolation: isolate"/>
  </g>
  <path id="Trazado_152760" data-name="Trazado 152760" d="M1895.559-416.385l-143.712,82.972H1643.378L1841.323-447.7Z" transform="translate(-1527.352 804.864)" fill="#438be3" opacity="0.2" style="mix-blend-mode: multiply;isolation: isolate"/>
  <path id="Trazado_152761" data-name="Trazado 152761" d="M2106.971-570.387l-53.867,31.1-53.865-31.1,53.865-31.1Z" transform="translate(-1732.337 893.449)" fill="#438be3"/>
  <path id="Trazado_152762" data-name="Trazado 152762" d="M2180.153-466.5l-53.867,31.1v-61.632l53.867-31.1Z" transform="translate(-1805.519 851.196)" fill="#1d65bd"/>
  <path id="Trazado_152763" data-name="Trazado 152763" d="M2053.1-497.034V-435.4l-53.865-31.1v-61.632Z" transform="translate(-1732.337 851.196)" fill="#044ca4"/>
  <g id="Grupo_140253" data-name="Grupo 140253" transform="translate(221.687 340.341)">
    <path id="Trazado_152764" data-name="Trazado 152764" d="M1991.633-302.379s-1.643,1.114-1.674,2.264,1.3,2.171,1.421,3.625.157,3.1.157,3.1l.611.042s-.2-4.254.926-3.907,3.006,2.286,4.789,2.383,3.824-2.19,3.686-2.69-1.649-.6-2.468-.83-2.058-.729-2.058-.729,1.083,1.005.587,1.462-.9.06-1.852-1.18A10.993,10.993,0,0,0,1991.633-302.379Z" transform="translate(-1948.678 380.815)" fill="#001135"/>
    <path id="Trazado_152765" data-name="Trazado 152765" d="M1897.943-282.395a2.3,2.3,0,0,1,1.809,2.6c-.224,1.871-.983,4.025-.855,5.015s.677,1.246.618,1.022a2.069,2.069,0,0,1-.195-.773c-.035-.541-.028-.639-.028-.639s1.6-.161,1.886.373-.638,2.187-1.623,2.977-1.257.822-1.712.644a12.684,12.684,0,0,1-2.233-1.376,3.819,3.819,0,0,1-1.477-2.428l-1.13,1.835-.409-.47a18.959,18.959,0,0,0,1.916-4.035c.263-1.33.146-2.489.947-3.44A5.149,5.149,0,0,1,1897.943-282.395Z" transform="translate(-1892.594 369.304)" fill="#001135"/>
    <path id="Trazado_152766" data-name="Trazado 152766" d="M1899.94-263.91c-.037-.1-.074-.21-.107-.33-.574-2.024-.469-4.712-.667-4.995s-.849-.841-1.346-.361a11.942,11.942,0,0,0-1.6,1.877,3.818,3.818,0,0,0,1.477,2.428,12.666,12.666,0,0,0,2.234,1.376Z" transform="translate(-1894.682 362.04)" fill="#485255"/>
    <path id="Trazado_152767" data-name="Trazado 152767" d="M1931.379-379.581c.083-1.935-4.3-10.264-5.5-8.679s-2.858,6.893-3.032,8-.662,3.139-1.156,6.763-1.479,10.4-1.783,11.223-4.093,2.384-5.692,3.943-4.849,8.4-6.026,10.711a18.909,18.909,0,0,1-2.975,4.13,2.3,2.3,0,0,1,1.81,2.6c-.223,1.871-.984,4.025-.856,5.015s.677,1.246.618,1.022a2.069,2.069,0,0,1-.195-.773c-.035-.541-.028-.639-.028-.639-.386-.443,1.578-4.066,2.148-5.122a62.923,62.923,0,0,1,5.293-7.252c1.5-1.616,6.761-7.6,7.6-8.143a13.617,13.617,0,0,0,3.758-3.327c1.235-1.707,2.105-4.957,3.206-8.367S1931.3-377.645,1931.379-379.581Z" transform="translate(-1899.862 430.399)" fill="#9f9292"/>
    <path id="Trazado_152768" data-name="Trazado 152768" d="M1975.12-359.533c.156,2.307.73,5.977.6,7.93a8,8,0,0,1-.937,3.291v0a11.187,11.187,0,0,1,4.035,3.5c.95,1.24,1.355,1.636,1.851,1.18.4-.366-.223-1.088-.482-1.357h0a.364.364,0,0,1-.064-.067l-.041-.038.015,0a15.229,15.229,0,0,1-.955-4.48,43.947,43.947,0,0,1,1.145-6.606c.525-2.17,2.25-11.143,2.623-13.322s-.738-3.929-3.271-5.993a16.181,16.181,0,0,0-6.093-2.8l.081-1.2-11.535-2.7c-.9,1.723-2.967,7.6-.025,10.2a9.517,9.517,0,0,0,6.665,2.235c1.594.51,8,1.568,8,1.568A29.783,29.783,0,0,0,1975.12-359.533Z" transform="translate(-1931.732 426.785)" fill="#9f9292"/>
    <path id="Trazado_152769" data-name="Trazado 152769" d="M1941.125-364.854s4.163,2.306,7.068,2.2,15.609-5.939,18.507-8.756,3.866-4.011,3.788-5.775a14.751,14.751,0,0,0-8.193-4.718l-15.924-6.259a56.745,56.745,0,0,0-2.584,6.41C1942.933-378.962,1941.125-364.854,1941.125-364.854Z" transform="translate(-1920.549 430.231)" fill="#1058b0"/>
    <path id="Trazado_152770" data-name="Trazado 152770" d="M2053.7-477.434a14.2,14.2,0,0,1-.191-1.752c-.027-.526-.044-2.185-.367-2.207s-.489.674-.475,1.347.01,2.111.005,2.734-.122,2.055-.347,2.075-.906-1.6-1.327-1.793-1.051-.239-.851.182.95,1.719,1.228,2.242,1.466,2.414,1.466,2.414l-.265.378,2.084,1.46a13.479,13.479,0,0,0,1.291-1.53c.232-.429.541-2.326.723-2.914s.575-2.252.726-2.709.388-1.844.07-1.926-.638,1.288-.762,1.675-.483,1.288-.69,1.176.292-2.354.335-2.855.195-1.437-.118-1.579-.519.734-.631,1.336-.392,2.42-.669,2.413-.109-1.914-.038-2.592.17-1.98-.256-2.081-.568.861-.6,1.435S2053.988-477.4,2053.7-477.434Z" transform="translate(-1983.328 484.25)" fill="#ffcda8"/>
    <path id="Trazado_152771" data-name="Trazado 152771" d="M2032.178-479.548a15.158,15.158,0,0,1,1.878.127,18.689,18.689,0,0,1,2.284.4c.566.2,2.4.377,2.436.027s-.325-.562-.9-.711-.929-.065-1.123-.535a4.908,4.908,0,0,1-.255-.743,9.759,9.759,0,0,1,1.93-1.51c.719-.313,1.843-1.05,1.61-1.444s-.817.046-1.384.284-1.736.738-1.828.616,1.227-.961,1.742-1.275,1.537-1.276,1.253-1.584-1.032.343-1.364.634a21.575,21.575,0,0,1-2,1.171s1.537-1.659,1.8-1.98.414-.745.2-.875-.946.662-1.408,1.08-1.344,1.187-1.344,1.187.943-1.49,1.179-1.764.5-.793.281-.925-1.224.919-1.579,1.447-1.162,1.693-1.572,2.157-1.383,1.374-1.383,1.374l-.8.163Z" transform="translate(-1972.811 487.381)" fill="#ffcda8"/>
    <path id="Trazado_152772" data-name="Trazado 152772" d="M1999.017-475.833a8.263,8.263,0,0,1,.615,3.135l-7.759,1.8-16.712,6.59-1.552-.294a7.036,7.036,0,0,1,3-3.834c2.3-1.324,6.708-3.247,7.788-3.929a21.822,21.822,0,0,1,8.22-2.752C1996.338-475.521,1999.017-475.833,1999.017-475.833Z" transform="translate(-1939.26 480.729)" fill="#e6f6ff"/>
    <path id="Trazado_152773" data-name="Trazado 152773" d="M2020.243-472.4c-1.942.4-6.576,1.34-7.421,1.5-1.073.2-3.511,1.881-3.107,2.562a1.342,1.342,0,0,0,.54.357l2.39-.942,7.759-1.8A5.442,5.442,0,0,0,2020.243-472.4Z" transform="translate(-1960.033 478.753)" fill="#c7deeb"/>
    <path id="Trazado_152774" data-name="Trazado 152774" d="M1972.977-448.347l3.38,1.906a20.673,20.673,0,0,1,.494,4.409,10.685,10.685,0,0,0-.034,3.86c.256,1.238.739,2.494.073,3.925s-2.907,2.246-2.907,2.246-1.48,2.568-2.025,3.441-1.919,2.34-1.915,3.533-.274,4.438-.382,5.623-.009,2.074-1.178,2.136a26.142,26.142,0,0,1-11.205-3.232c-3.948-2.482-4.166-3.831-4.166-3.831s-.136-.777,2.139-3.32a13.816,13.816,0,0,0,3.741-6.563c.62-2.457.8-6.706,1.147-9.353a29.411,29.411,0,0,1,1.661-6.694c.465-.935,5.17-.616,5.17-.616Z" transform="translate(-1927.453 466.384)" fill="#e6f6ff"/>
    <path id="Trazado_152775" data-name="Trazado 152775" d="M1988.516-425.309c.255,3.2-3.764,7.615-6.287,11.631-1.428,2.272-1.771,5.4-1.8,7.7a19.2,19.2,0,0,0,3.791.493c1.169-.062,1.068-.95,1.177-2.136s.386-4.43.383-5.623,1.374-2.662,1.915-3.533,2.024-3.441,2.024-3.441,2.242-.815,2.907-2.246.183-2.687-.072-3.925a10.673,10.673,0,0,1,.034-3.86,1.628,1.628,0,0,0,.03-.226,17.348,17.348,0,0,0-1.818.1A5.494,5.494,0,0,0,1988.516-425.309Z" transform="translate(-1943.188 454.603)" fill="#c7deeb"/>
    <g id="Grupo_140252" data-name="Grupo 140252" transform="translate(34.548 3.045)">
      <path id="Trazado_152776" data-name="Trazado 152776" d="M2000.1-474.348a8.9,8.9,0,0,1-.253,2.747c-.2.483-.6.636-.592,1.172a2.048,2.048,0,0,1-.2,1.385,17.691,17.691,0,0,1-1.431,2.132c-.233.421-.458,1.2-1.053,1.234s-2.373-.769-2.8-.144a11.647,11.647,0,0,0-1.012,3.628c.013.582-2.855.764-4.916-.426s-.747-4.231-.747-4.231a11.543,11.543,0,0,0,2.174-2.47c.487-1,.053-2.647-.127-3.519a6.342,6.342,0,0,1,2.2-5.157c1.947-1.584,4.47-.622,5.975.144A5.573,5.573,0,0,1,2000.1-474.348Z" transform="translate(-1981.342 479.422)" fill="#ffcda8"/>
      <path id="Trazado_152777" data-name="Trazado 152777" d="M1998.792-453.623a.39.39,0,0,0,.069-.009c-.674-.733-1.779-2.141-1.593-3.3l-.3-.611-1.741-.375a55.024,55.024,0,0,1-4.685,7.6c2,.917,4.453.722,4.442.183a11.66,11.66,0,0,1,1.012-3.628C1996.419-454.392,1998.2-453.589,1998.792-453.623Z" transform="translate(-1983.562 467.367)" fill="#d9a782"/>
      <path id="Trazado_152778" data-name="Trazado 152778" d="M1982.221-459.333a4.554,4.554,0,0,1-1.046.522c2.045.112,3.811-2.752,3.811-2.752a9.1,9.1,0,0,1-1.588,2.5c3.84-2.541,3.079-9.04,3.7-10.345a13.113,13.113,0,0,1,1.244-2.118,3.519,3.519,0,0,0,1.582.622c.825.063.76-.884.978-1.361,0,0,2.233-1.086,2.174-2.656a5.605,5.605,0,0,0-4.3-5.047,5.994,5.994,0,0,0-6.779,2.576c-1.119,1.822-1.389,5.434-2.492,6.308-1.085.862-4.2,1.849-5.423,3.837a14.309,14.309,0,0,1,2.377-.945s-2.324,1.481-2.151,3.25c0,0,.268-1.383,1.017-1.781a3.515,3.515,0,0,0,.647,4.612C1978.316-459.948,1980.355-458.733,1982.221-459.333Z" transform="translate(-1974.08 480.198)" fill="#e54b5a"/>
      <path id="Trazado_152779" data-name="Trazado 152779" d="M1988.345-471.522a3.519,3.519,0,0,0,1.582.622c.825.063.76-.884.978-1.361a5.032,5.032,0,0,0,1.92-1.681,4.607,4.607,0,0,1-2.594,1.321,2.475,2.475,0,0,0,2-1.669c-.736,1.424-3.333,1.277-4.759,2.165s-1.459,4.188-1.489,4.807a20.9,20.9,0,0,1-.4,2.254,5.272,5.272,0,0,1-.146-3.138c-1.3,2.031.234,3.755-.473,5.6a5.464,5.464,0,0,1-2.606,2.7,5.267,5.267,0,0,0,1.124-1.28c-1.792,1.471-2.832.948-2.832.948a5.829,5.829,0,0,0,3.085-4.353,7.073,7.073,0,0,1-4.434,4.261c-.234-.088-.679-1.114-.679-1.114l.068.8a4.946,4.946,0,0,1-1.2-2.964,5.334,5.334,0,0,1,.8-2.894c-1.558,1.427-1.107,4.589-1.107,4.589a3.7,3.7,0,0,1-.527-2.605,3.844,3.844,0,0,0-.206,2.165c-1.682-1.985.665-5.218,1.658-5.7a6.916,6.916,0,0,0,1.938-1.716,2.557,2.557,0,0,1-.992.336c1.59-.706,2.509-3.518,2.509-3.518.227,1.646-1.415,4.217-1.415,4.217a8,8,0,0,0,1.71-2.091c-.106,1.6-2.372,4.486-2.372,4.486,1.8-1.17,3.2-4.872,3.653-7.044s1.329-4.593,4.236-5.4a6.3,6.3,0,0,1,4.44.706,5.83,5.83,0,0,0-3.037-1.893,5.994,5.994,0,0,0-6.779,2.576c-1.119,1.822-1.389,5.434-2.492,6.308-1.085.862-4.2,1.849-5.423,3.837a14.309,14.309,0,0,1,2.377-.945s-2.324,1.481-2.151,3.25c0,0,.268-1.383,1.017-1.781a3.515,3.515,0,0,0,.647,4.612c2.346,2.158,4.385,3.373,6.251,2.772a4.554,4.554,0,0,1-1.046.522c2.045.112,3.811-2.752,3.811-2.752a9.1,9.1,0,0,1-1.588,2.5c3.84-2.541,3.079-9.04,3.7-10.345A13.113,13.113,0,0,1,1988.345-471.522Z" transform="translate(-1974.08 480.198)" fill="#cc3241"/>
      <path id="Trazado_152780" data-name="Trazado 152780" d="M2006.8-460.12a.624.624,0,0,0-.9-.682,1.6,1.6,0,0,0-.616,1.758c.2.6.585,1.137.947.781A5.1,5.1,0,0,0,2006.8-460.12Z" transform="translate(-1992.014 469.072)" fill="#ffcda8"/>
      <g id="Grupo_140250" data-name="Grupo 140250" transform="translate(9.919 1.708)">
        <path id="Trazado_152781" data-name="Trazado 152781" d="M2003.557-476.045a3.3,3.3,0,0,0-1.2-.046,4.48,4.48,0,0,0-1.19.323,5.6,5.6,0,0,0-1.226.722,8.943,8.943,0,0,0-1.815,1.952c-.417.6-.647,1.021-.65,1.019a12.088,12.088,0,0,1,.6-1.07,7.832,7.832,0,0,1,1.782-2.009,5.109,5.109,0,0,1,1.251-.715,4.28,4.28,0,0,1,1.227-.289A3.153,3.153,0,0,1,2003.557-476.045Z" transform="translate(-1997.475 476.171)" fill="#cc3241"/>
      </g>
      <g id="Grupo_140251" data-name="Grupo 140251" transform="translate(5.904 4.077)">
        <path id="Trazado_152782" data-name="Trazado 152782" d="M1988.006-458.623a17.619,17.619,0,0,0,1.36-1.608,13.879,13.879,0,0,0,1.179-1.816,7.688,7.688,0,0,0,.5-1.119c.132-.393.239-.814.359-1.225a34.282,34.282,0,0,1,1.484-4.449,6.468,6.468,0,0,1,.753-1.33,2.007,2.007,0,0,1,.408-.411,2.037,2.037,0,0,0-.4.431,6.851,6.851,0,0,0-.714,1.361,43.273,43.273,0,0,0-1.4,4.435c-.117.407-.224.812-.359,1.212a7.477,7.477,0,0,1-.512,1.122,13.051,13.051,0,0,1-1.222,1.81A16.361,16.361,0,0,1,1988.006-458.623Z" transform="translate(-1988.006 470.581)" fill="#cc3241"/>
      </g>
    </g>
    <path id="Trazado_152783" data-name="Trazado 152783" d="M2021.119-458.971s2.067-.261,2.55,1.036c0,0-1.9,3.225-2.631,4.228a13.323,13.323,0,0,1-4.107,3.586c-1.235.442-9.366,2.807-10.5,3.317s-8.12,4.425-9.18,4.985-2.28-1.816-2.18-4,4.674-5.923,7.805-6.237,7.26-1.025,8.892-1.4a19.373,19.373,0,0,0,2.873-.887,18.29,18.29,0,0,1,2.991-2.4A21.153,21.153,0,0,0,2021.119-458.971Z" transform="translate(-1951.62 471.028)" fill="#e6f6ff"/>
  </g>
</svg>
